<svg width="316" height="63" viewBox="0 0 316 63" fill="none" xmlns="http://www.w3.org/2000/svg">
<g clip-path="url(#clip0_1501_13807)">
<path d="M23.1501 23.8808L0.383789 11.9207L23.1501 0L45.9165 11.9207L23.1501 23.8808ZM5.54523 11.9207L23.1501 21.1662L40.7551 11.9207L23.1501 2.71462L5.54523 11.9207Z" fill="#fff"/>
<path d="M46.2364 16.2877V44.0635L23.2299 56.2989L0.0634766 44.0635V16.2877L2.50416 17.586V42.6078L23.2299 53.5843L43.7957 42.6471V17.586L46.2364 16.2877Z" fill="#D2AA1B"/>
<path d="M23.2297 62.0035L1.82373 50.7123L1.86374 47.9977L23.2297 59.2889L44.4356 47.9977V50.7516L23.2297 62.0035Z" fill="#fff"/>
<path d="M7.82593 20.0646V42.057L5.38525 40.7194V18.8057L7.82593 20.0646Z" fill="#fff"/>
<path d="M40.7151 18.9237V40.562L38.2744 42.057V20.1826L40.7151 18.9237Z" fill="#fff"/>
<path d="M23.1504 25.4152L11.187 45.7552H13.9078L15.3482 43.3159H19.0292L20.3896 40.9947H16.7086L23.1504 30.0182L25.511 34.0311L18.6291 45.7158H21.3498L22.8303 43.1979H30.9125L32.3929 45.7158H35.1137L23.1504 25.4152ZM24.1906 40.916L26.8714 36.3917L29.5521 40.916H24.1906Z" fill="#D2AA1B"/>
<path d="M59.093 9.90218H60.3478L62.3479 14.3373C62.497 14.6686 62.762 15.3063 63.143 16.2505L63.1803 16.2257C63.1306 15.8033 63.0892 15.3063 63.0561 14.7349C63.0229 14.1634 63.0064 13.683 63.0064 13.2938V9.90218H64.2487V18.5985H62.9939L61.0559 14.3373C60.6998 13.4511 60.4223 12.7471 60.2235 12.2253L60.1863 12.2502C60.2277 12.6809 60.2608 13.1861 60.2857 13.7658C60.3188 14.3373 60.3353 14.8301 60.3353 15.2442V18.5985H59.093V9.90218Z" fill="#fff"/>
<path d="M69.4129 16.8468H67.1146L66.7171 18.5985H65.4002L67.5867 9.90218H68.9408L71.1274 18.5985H69.8229L69.4129 16.8468ZM69.152 15.679L68.6054 13.3434C68.4812 12.7637 68.3735 12.1425 68.2824 11.4799H68.2451C68.1375 12.2668 68.0298 12.8879 67.9221 13.3434L67.3879 15.679H69.152Z" fill="#fff"/>
<path d="M76.0653 11.0948H74.2515V18.5985H72.9719V11.0948H71.1705V9.90218H76.0653V11.0948Z" fill="#fff"/>
<path d="M77.2689 9.90218H78.5236V18.5985H77.2689V9.90218Z" fill="#fff"/>
<path d="M82.8623 18.76C82.0341 18.76 81.3839 18.5033 80.9118 17.9898C80.4397 17.468 80.2037 16.7516 80.2037 15.8405V12.6602C80.2037 11.7491 80.4397 11.0368 80.9118 10.5233C81.3839 10.0016 82.0341 9.74068 82.8623 9.74068C83.6905 9.74068 84.3407 10.0016 84.8127 10.5233C85.2848 11.0368 85.5209 11.7491 85.5209 12.6602V15.8405C85.5209 16.7516 85.2848 17.468 84.8127 17.9898C84.3407 18.5033 83.6905 18.76 82.8623 18.76ZM82.8623 17.5301C83.3095 17.5301 83.6491 17.3852 83.881 17.0953C84.1129 16.8054 84.2288 16.3872 84.2288 15.8405V12.6602C84.2288 12.1135 84.1129 11.6953 83.881 11.4054C83.6491 11.1155 83.3095 10.9706 82.8623 10.9706C82.415 10.9706 82.0755 11.1155 81.8436 11.4054C81.6117 11.6953 81.4957 12.1135 81.4957 12.6602V15.8405C81.4957 16.3872 81.6117 16.8054 81.8436 17.0953C82.0755 17.3852 82.415 17.5301 82.8623 17.5301Z" fill="#fff"/>
<path d="M87.2144 9.90218H88.4692L90.4694 14.3373C90.6184 14.6686 90.8835 15.3063 91.2644 16.2505L91.3017 16.2257C91.252 15.8033 91.2106 15.3063 91.1775 14.7349C91.1444 14.1634 91.1278 13.683 91.1278 13.2938V9.90218H92.3701V18.5985H91.1154L89.1773 14.3373C88.8212 13.4511 88.5437 12.7471 88.345 12.2253L88.3077 12.2502C88.3491 12.6809 88.3822 13.1861 88.4071 13.7658C88.4402 14.3373 88.4568 14.8301 88.4568 15.2442V18.5985H87.2144V9.90218Z" fill="#fff"/>
<path d="M97.5344 16.8468H95.236L94.8385 18.5985H93.5216L95.7081 9.90218H97.0623L99.2488 18.5985H97.9443L97.5344 16.8468ZM97.2735 15.679L96.7268 13.3434C96.6026 12.7637 96.4949 12.1425 96.4038 11.4799H96.3666C96.2589 12.2668 96.1512 12.8879 96.0436 13.3434L95.5093 15.679H97.2735Z" fill="#fff"/>
<path d="M104.548 17.4059V18.5985H100.411V9.90218H101.666V17.4059H104.548Z" fill="#fff"/>
<path d="M110.611 15.443H109.828V18.5985H108.574V9.90218H110.822C111.65 9.90218 112.292 10.1424 112.748 10.6227C113.203 11.0948 113.431 11.7615 113.431 12.6229C113.431 13.2938 113.294 13.8569 113.021 14.3125C112.748 14.768 112.363 15.0869 111.866 15.2691L113.754 18.5985H112.363L110.611 15.443ZM109.828 14.2504H110.797C111.236 14.2504 111.568 14.1137 111.791 13.8404C112.023 13.5671 112.139 13.1695 112.139 12.6477C112.139 12.1342 112.027 11.7491 111.804 11.4924C111.58 11.2273 111.249 11.0948 110.81 11.0948H109.828V14.2504Z" fill="#fff"/>
<path d="M119.418 17.4183V18.5985H115.033V9.90218H119.294V11.0824H116.287V13.6043H119.058V14.7597H116.287V17.4183H119.418Z" fill="#fff"/>
<path d="M122.958 18.76C122.179 18.76 121.562 18.5323 121.107 18.0767C120.651 17.6212 120.419 17.0001 120.411 16.2132H121.691C121.699 16.6522 121.811 16.9835 122.026 17.2071C122.25 17.4307 122.56 17.5425 122.958 17.5425C123.364 17.5425 123.67 17.4349 123.877 17.2195C124.093 17.0042 124.2 16.7143 124.2 16.3499C124.2 16.002 124.072 15.708 123.815 15.4678C123.558 15.2194 123.169 14.9419 122.647 14.6355C122.192 14.3539 121.827 14.1054 121.554 13.8901C121.281 13.6747 121.045 13.4056 120.846 13.0826C120.655 12.7596 120.56 12.3786 120.56 11.9396C120.56 11.5255 120.655 11.1528 120.846 10.8215C121.045 10.4819 121.322 10.2169 121.678 10.0264C122.043 9.83592 122.465 9.74068 122.945 9.74068C123.683 9.74068 124.266 9.96016 124.697 10.3991C125.128 10.8381 125.351 11.4303 125.368 12.1757H124.088C124.08 11.7698 123.977 11.4634 123.778 11.2563C123.579 11.0493 123.306 10.9457 122.958 10.9457C122.61 10.9457 122.337 11.0368 122.138 11.2191C121.939 11.4013 121.84 11.6497 121.84 11.9645C121.84 12.2046 121.906 12.4158 122.039 12.598C122.171 12.7803 122.333 12.9418 122.523 13.0826C122.722 13.2151 122.999 13.389 123.355 13.6043C123.819 13.8777 124.192 14.122 124.474 14.3373C124.755 14.5527 124.995 14.8301 125.194 15.1697C125.393 15.501 125.492 15.8985 125.492 16.3623C125.492 16.8013 125.393 17.203 125.194 17.5674C124.995 17.9318 124.701 18.2217 124.312 18.437C123.931 18.6524 123.48 18.76 122.958 18.76Z" fill="#fff"/>
<path d="M131.208 17.4183V18.5985H126.822V9.90218H131.083V11.0824H128.077V13.6043H130.847V14.7597H128.077V17.4183H131.208Z" fill="#fff"/>
<path d="M135.977 16.8468H133.679L133.282 18.5985H131.965L134.151 9.90218H135.505L137.692 18.5985H136.387L135.977 16.8468ZM135.717 15.679L135.17 13.3434C135.046 12.7637 134.938 12.1425 134.847 11.4799H134.81C134.702 12.2668 134.594 12.8879 134.487 13.3434L133.952 15.679H135.717Z" fill="#fff"/>
<path d="M140.892 15.443H140.109V18.5985H138.855V9.90218H141.103C141.931 9.90218 142.573 10.1424 143.029 10.6227C143.484 11.0948 143.712 11.7615 143.712 12.6229C143.712 13.2938 143.575 13.8569 143.302 14.3125C143.029 14.768 142.644 15.0869 142.147 15.2691L144.035 18.5985H142.644L140.892 15.443ZM140.109 14.2504H141.078C141.517 14.2504 141.849 14.1137 142.072 13.8404C142.304 13.5671 142.42 13.1695 142.42 12.6477C142.42 12.1342 142.308 11.7491 142.085 11.4924C141.861 11.2273 141.53 11.0948 141.091 11.0948H140.109V14.2504Z" fill="#fff"/>
<path d="M147.587 18.7476C146.808 18.7476 146.191 18.5116 145.736 18.0395C145.289 17.5674 145.065 16.9007 145.065 16.0393V12.4614C145.065 11.5918 145.289 10.9209 145.736 10.4488C146.183 9.97672 146.796 9.74068 147.575 9.74068C148.37 9.74068 148.991 9.97258 149.438 10.4364C149.885 10.8919 150.125 11.5503 150.159 12.4117H148.916C148.883 11.9065 148.755 11.5338 148.531 11.2936C148.308 11.0534 147.985 10.9333 147.562 10.9333C147.181 10.9333 146.883 11.0617 146.668 11.3184C146.452 11.5752 146.345 11.9562 146.345 12.4614V16.0393C146.345 16.5445 146.452 16.9255 146.668 17.1823C146.891 17.4307 147.198 17.555 147.587 17.555C148.009 17.555 148.332 17.4349 148.556 17.1947C148.788 16.9545 148.925 16.5859 148.966 16.089H150.208C150.167 16.9421 149.918 17.6005 149.463 18.0643C149.016 18.5198 148.39 18.7476 147.587 18.7476Z" fill="#fff"/>
<path d="M156.596 9.90218V18.5985H155.341V14.7846H152.882V18.5985H151.627V9.90218H152.882V13.6043H155.341V9.90218H156.596Z" fill="#fff"/>
<path d="M161.403 9.90218H162.657V18.5985H161.403V9.90218Z" fill="#fff"/>
<path d="M164.586 9.90218H165.841L167.841 14.3373C167.99 14.6686 168.255 15.3063 168.636 16.2505L168.673 16.2257C168.624 15.8033 168.582 15.3063 168.549 14.7349C168.516 14.1634 168.499 13.683 168.499 13.2938V9.90218H169.742V18.5985H168.487L166.549 14.3373C166.193 13.4511 165.915 12.7471 165.716 12.2253L165.679 12.2502C165.721 12.6809 165.754 13.1861 165.779 13.7658C165.812 14.3373 165.828 14.8301 165.828 15.2442V18.5985H164.586V9.90218Z" fill="#fff"/>
<path d="M173.676 18.76C172.897 18.76 172.28 18.5323 171.825 18.0767C171.369 17.6212 171.137 17.0001 171.129 16.2132H172.409C172.417 16.6522 172.529 16.9835 172.744 17.2071C172.968 17.4307 173.278 17.5425 173.676 17.5425C174.082 17.5425 174.388 17.4349 174.595 17.2195C174.811 17.0042 174.918 16.7143 174.918 16.3499C174.918 16.002 174.79 15.708 174.533 15.4678C174.276 15.2194 173.887 14.9419 173.365 14.6355C172.91 14.3539 172.545 14.1054 172.272 13.8901C171.999 13.6747 171.763 13.4056 171.564 13.0826C171.373 12.7596 171.278 12.3786 171.278 11.9396C171.278 11.5255 171.373 11.1528 171.564 10.8215C171.763 10.4819 172.04 10.2169 172.396 10.0264C172.761 9.83592 173.183 9.74068 173.663 9.74068C174.401 9.74068 174.985 9.96016 175.415 10.3991C175.846 10.8381 176.069 11.4303 176.086 12.1757H174.806C174.798 11.7698 174.695 11.4634 174.496 11.2563C174.297 11.0493 174.024 10.9457 173.676 10.9457C173.328 10.9457 173.055 11.0368 172.856 11.2191C172.657 11.4013 172.558 11.6497 172.558 11.9645C172.558 12.2046 172.624 12.4158 172.757 12.598C172.889 12.7803 173.051 12.9418 173.241 13.0826C173.44 13.2151 173.717 13.389 174.073 13.6043C174.537 13.8777 174.91 14.122 175.192 14.3373C175.473 14.5527 175.713 14.8301 175.912 15.1697C176.111 15.501 176.21 15.8985 176.21 16.3623C176.21 16.8013 176.111 17.203 175.912 17.5674C175.713 17.9318 175.419 18.2217 175.03 18.437C174.649 18.6524 174.198 18.76 173.676 18.76Z" fill="#fff"/>
<path d="M181.886 11.0948H180.072V18.5985H178.792V11.0948H176.991V9.90218H181.886V11.0948Z" fill="#fff"/>
<path d="M183.089 9.90218H184.344V18.5985H183.089V9.90218Z" fill="#fff"/>
<path d="M190.509 11.0948H188.695V18.5985H187.416V11.0948H185.614V9.90218H190.509V11.0948Z" fill="#fff"/>
<path d="M194.171 18.7228C193.392 18.7228 192.771 18.4826 192.307 18.0022C191.852 17.5136 191.624 16.8303 191.624 15.9524V9.90218H192.904V15.9524C192.904 16.4659 193.015 16.8551 193.239 17.1201C193.463 17.3769 193.773 17.5053 194.171 17.5053C194.577 17.5053 194.891 17.3769 195.115 17.1201C195.339 16.8551 195.45 16.4659 195.45 15.9524V9.90218H196.718V15.9524C196.718 16.8303 196.49 17.5136 196.034 18.0022C195.579 18.4826 194.958 18.7228 194.171 18.7228Z" fill="#fff"/>
<path d="M202.76 11.0948H200.946V18.5985H199.666V11.0948H197.865V9.90218H202.76V11.0948Z" fill="#fff"/>
<path d="M208.349 17.4183V18.5985H203.963V9.90218H208.224V11.0824H205.218V13.6043H207.988V14.7597H205.218V17.4183H208.349Z" fill="#fff"/>
<path d="M215.166 18.76C214.338 18.76 213.688 18.5033 213.216 17.9898C212.744 17.468 212.508 16.7516 212.508 15.8405V12.6602C212.508 11.7491 212.744 11.0368 213.216 10.5233C213.688 10.0016 214.338 9.74068 215.166 9.74068C215.995 9.74068 216.645 10.0016 217.117 10.5233C217.589 11.0368 217.825 11.7491 217.825 12.6602V15.8405C217.825 16.7516 217.589 17.468 217.117 17.9898C216.645 18.5033 215.995 18.76 215.166 18.76ZM215.166 17.5301C215.614 17.5301 215.953 17.3852 216.185 17.0953C216.417 16.8054 216.533 16.3872 216.533 15.8405V12.6602C216.533 12.1135 216.417 11.6953 216.185 11.4054C215.953 11.1155 215.614 10.9706 215.166 10.9706C214.719 10.9706 214.38 11.1155 214.148 11.4054C213.916 11.6953 213.8 12.1135 213.8 12.6602V15.8405C213.8 16.3872 213.916 16.8054 214.148 17.0953C214.38 17.3852 214.719 17.5301 215.166 17.5301Z" fill="#fff"/>
<path d="M220.773 11.0824V13.6789H223.395V14.8218H220.773V18.5985H219.518V9.90218H223.618V11.0824H220.773Z" fill="#fff"/>
<path d="M230.161 9.90218C231.014 9.90218 231.672 10.1506 232.136 10.6476C232.6 11.1362 232.832 11.8237 232.832 12.7099C232.832 13.6209 232.6 14.3208 232.136 14.8094C231.672 15.2981 231.014 15.5424 230.161 15.5424H229.117V18.5985H227.863V9.90218H230.161ZM230.149 14.3497C230.621 14.3497 230.973 14.2172 231.204 13.9522C231.436 13.6789 231.552 13.2648 231.552 12.7099C231.552 11.6332 231.084 11.0948 230.149 11.0948H229.117V14.3497H230.149Z" fill="#fff"/>
<path d="M236.141 15.443H235.358V18.5985H234.103V9.90218H236.352C237.18 9.90218 237.822 10.1424 238.277 10.6227C238.733 11.0948 238.961 11.7615 238.961 12.6229C238.961 13.2938 238.824 13.8569 238.551 14.3125C238.277 14.768 237.892 15.0869 237.395 15.2691L239.284 18.5985H237.892L236.141 15.443ZM235.358 14.2504H236.327C236.766 14.2504 237.097 14.1137 237.321 13.8404C237.553 13.5671 237.669 13.1695 237.669 12.6477C237.669 12.1342 237.557 11.7491 237.333 11.4924C237.11 11.2273 236.778 11.0948 236.339 11.0948H235.358V14.2504Z" fill="#fff"/>
<path d="M242.972 18.76C242.144 18.76 241.494 18.5033 241.022 17.9898C240.55 17.468 240.314 16.7516 240.314 15.8405V12.6602C240.314 11.7491 240.55 11.0368 241.022 10.5233C241.494 10.0016 242.144 9.74068 242.972 9.74068C243.801 9.74068 244.451 10.0016 244.923 10.5233C245.395 11.0368 245.631 11.7491 245.631 12.6602V15.8405C245.631 16.7516 245.395 17.468 244.923 17.9898C244.451 18.5033 243.801 18.76 242.972 18.76ZM242.972 17.5301C243.42 17.5301 243.759 17.3852 243.991 17.0953C244.223 16.8054 244.339 16.3872 244.339 15.8405V12.6602C244.339 12.1135 244.223 11.6953 243.991 11.4054C243.759 11.1155 243.42 10.9706 242.972 10.9706C242.525 10.9706 242.186 11.1155 241.954 11.4054C241.722 11.6953 241.606 12.1135 241.606 12.6602V15.8405C241.606 16.3872 241.722 16.8054 241.954 17.0953C242.186 17.3852 242.525 17.5301 242.972 17.5301Z" fill="#fff"/>
<path d="M248.579 11.0824V13.6789H251.201V14.8218H248.579V18.5985H247.324V9.90218H251.424V11.0824H248.579Z" fill="#fff"/>
<path d="M257.186 17.4183V18.5985H252.801V9.90218H257.062V11.0824H254.055V13.6043H256.826V14.7597H254.055V17.4183H257.186Z" fill="#fff"/>
<path d="M260.726 18.76C259.948 18.76 259.331 18.5323 258.875 18.0767C258.419 17.6212 258.188 17.0001 258.179 16.2132H259.459C259.467 16.6522 259.579 16.9835 259.794 17.2071C260.018 17.4307 260.329 17.5425 260.726 17.5425C261.132 17.5425 261.438 17.4349 261.645 17.2195C261.861 17.0042 261.968 16.7143 261.968 16.3499C261.968 16.002 261.84 15.708 261.583 15.4678C261.327 15.2194 260.937 14.9419 260.415 14.6355C259.96 14.3539 259.596 14.1054 259.322 13.8901C259.049 13.6747 258.813 13.4056 258.614 13.0826C258.424 12.7596 258.328 12.3786 258.328 11.9396C258.328 11.5255 258.424 11.1528 258.614 10.8215C258.813 10.4819 259.09 10.2169 259.446 10.0264C259.811 9.83592 260.233 9.74068 260.714 9.74068C261.451 9.74068 262.035 9.96016 262.465 10.3991C262.896 10.8381 263.12 11.4303 263.136 12.1757H261.857C261.848 11.7698 261.745 11.4634 261.546 11.2563C261.347 11.0493 261.074 10.9457 260.726 10.9457C260.378 10.9457 260.105 11.0368 259.906 11.2191C259.707 11.4013 259.608 11.6497 259.608 11.9645C259.608 12.2046 259.674 12.4158 259.807 12.598C259.939 12.7803 260.101 12.9418 260.291 13.0826C260.49 13.2151 260.767 13.389 261.124 13.6043C261.587 13.8777 261.96 14.122 262.242 14.3373C262.523 14.5527 262.764 14.8301 262.962 15.1697C263.161 15.501 263.26 15.8985 263.26 16.3623C263.26 16.8013 263.161 17.203 262.962 17.5674C262.764 17.9318 262.469 18.2217 262.08 18.437C261.699 18.6524 261.248 18.76 260.726 18.76Z" fill="#fff"/>
<path d="M266.7 18.76C265.921 18.76 265.304 18.5323 264.849 18.0767C264.393 17.6212 264.161 17.0001 264.153 16.2132H265.433C265.441 16.6522 265.553 16.9835 265.768 17.2071C265.992 17.4307 266.302 17.5425 266.7 17.5425C267.106 17.5425 267.412 17.4349 267.619 17.2195C267.834 17.0042 267.942 16.7143 267.942 16.3499C267.942 16.002 267.814 15.708 267.557 15.4678C267.3 15.2194 266.911 14.9419 266.389 14.6355C265.934 14.3539 265.569 14.1054 265.296 13.8901C265.023 13.6747 264.787 13.4056 264.588 13.0826C264.397 12.7596 264.302 12.3786 264.302 11.9396C264.302 11.5255 264.397 11.1528 264.588 10.8215C264.787 10.4819 265.064 10.2169 265.42 10.0264C265.785 9.83592 266.207 9.74068 266.687 9.74068C267.424 9.74068 268.008 9.96016 268.439 10.3991C268.87 10.8381 269.093 11.4303 269.11 12.1757H267.83C267.822 11.7698 267.718 11.4634 267.52 11.2563C267.321 11.0493 267.048 10.9457 266.7 10.9457C266.352 10.9457 266.079 11.0368 265.88 11.2191C265.681 11.4013 265.582 11.6497 265.582 11.9645C265.582 12.2046 265.648 12.4158 265.78 12.598C265.913 12.7803 266.074 12.9418 266.265 13.0826C266.464 13.2151 266.741 13.389 267.097 13.6043C267.561 13.8777 267.934 14.122 268.215 14.3373C268.497 14.5527 268.737 14.8301 268.936 15.1697C269.135 15.501 269.234 15.8985 269.234 16.3623C269.234 16.8013 269.135 17.203 268.936 17.5674C268.737 17.9318 268.443 18.2217 268.054 18.437C267.673 18.6524 267.222 18.76 266.7 18.76Z" fill="#fff"/>
<path d="M270.564 9.90218H271.819V18.5985H270.564V9.90218Z" fill="#fff"/>
<path d="M276.158 18.76C275.329 18.76 274.679 18.5033 274.207 17.9898C273.735 17.468 273.499 16.7516 273.499 15.8405V12.6602C273.499 11.7491 273.735 11.0368 274.207 10.5233C274.679 10.0016 275.329 9.74068 276.158 9.74068C276.986 9.74068 277.636 10.0016 278.108 10.5233C278.58 11.0368 278.816 11.7491 278.816 12.6602V15.8405C278.816 16.7516 278.58 17.468 278.108 17.9898C277.636 18.5033 276.986 18.76 276.158 18.76ZM276.158 17.5301C276.605 17.5301 276.944 17.3852 277.176 17.0953C277.408 16.8054 277.524 16.3872 277.524 15.8405V12.6602C277.524 12.1135 277.408 11.6953 277.176 11.4054C276.944 11.1155 276.605 10.9706 276.158 10.9706C275.71 10.9706 275.371 11.1155 275.139 11.4054C274.907 11.6953 274.791 12.1135 274.791 12.6602V15.8405C274.791 16.3872 274.907 16.8054 275.139 17.0953C275.371 17.3852 275.71 17.5301 276.158 17.5301Z" fill="#fff"/>
<path d="M280.51 9.90218H281.764L283.765 14.3373C283.914 14.6686 284.179 15.3063 284.56 16.2505L284.597 16.2257C284.547 15.8033 284.506 15.3063 284.473 14.7349C284.44 14.1634 284.423 13.683 284.423 13.2938V9.90218H285.665V18.5985H284.411L282.473 14.3373C282.116 13.4511 281.839 12.7471 281.64 12.2253L281.603 12.2502C281.644 12.6809 281.677 13.1861 281.702 13.7658C281.735 14.3373 281.752 14.8301 281.752 15.2442V18.5985H280.51V9.90218Z" fill="#fff"/>
<path d="M290.83 16.8468H288.531L288.134 18.5985H286.817L289.003 9.90218H290.358L292.544 18.5985H291.24L290.83 16.8468ZM290.569 15.679L290.022 13.3434C289.898 12.7637 289.79 12.1425 289.699 11.4799H289.662C289.554 12.2668 289.446 12.8879 289.339 13.3434L288.805 15.679H290.569Z" fill="#fff"/>
<path d="M297.844 17.4059V18.5985H293.707V9.90218H294.961V17.4059H297.844Z" fill="#fff"/>
<path d="M59.093 25.9022H61.2547C62.0995 25.9022 62.7579 26.1424 63.23 26.6227C63.7021 27.0948 63.9381 27.7574 63.9381 28.6105V31.8654C63.9381 32.7267 63.7021 33.3976 63.23 33.878C62.7579 34.3583 62.1036 34.5985 61.2671 34.5985H59.093V25.9022ZM61.2671 33.4059C61.7143 33.4059 62.058 33.2734 62.2982 33.0083C62.5467 32.7433 62.6709 32.354 62.6709 31.8405V28.6353C62.6709 28.1301 62.5508 27.7491 62.3107 27.4924C62.0705 27.2273 61.7226 27.0948 61.2671 27.0948H60.3478V33.4059H61.2671Z" fill="#fff"/>
<path d="M70.0102 33.4183V34.5985H65.6248V25.9022H69.886V27.0824H66.8795V29.6043H69.6499V30.7597H66.8795V33.4183H70.0102Z" fill="#fff"/>
<path d="M70.7673 25.9022H72.0841L73.1277 30.6976C73.2271 31.1531 73.343 31.7701 73.4756 32.5487C73.5004 32.6563 73.5294 32.8096 73.5625 33.0083H73.6122C73.8027 31.9399 73.9477 31.1697 74.047 30.6976L75.103 25.9022H76.4075L74.2707 34.5985H72.9041L70.7673 25.9022Z" fill="#fff"/>
<path d="M81.9576 33.4183V34.5985H77.5722V25.9022H81.8334V27.0824H78.8269V29.6043H81.5973V30.7597H78.8269V33.4183H81.9576Z" fill="#fff"/>
<path d="M87.6343 33.4059V34.5985H83.4973V25.9022H84.7521V33.4059H87.6343Z" fill="#fff"/>
<path d="M91.2017 34.76C90.3735 34.76 89.7234 34.5033 89.2513 33.9898C88.7792 33.468 88.5431 32.7516 88.5431 31.8405V28.6602C88.5431 27.7491 88.7792 27.0368 89.2513 26.5233C89.7234 26.0016 90.3735 25.7407 91.2017 25.7407C92.03 25.7407 92.6801 26.0016 93.1522 26.5233C93.6243 27.0368 93.8603 27.7491 93.8603 28.6602V31.8405C93.8603 32.7516 93.6243 33.468 93.1522 33.9898C92.6801 34.5033 92.03 34.76 91.2017 34.76ZM91.2017 33.5301C91.649 33.5301 91.9886 33.3852 92.2205 33.0953C92.4524 32.8054 92.5683 32.3872 92.5683 31.8405V28.6602C92.5683 28.1135 92.4524 27.6953 92.2205 27.4054C91.9886 27.1155 91.649 26.9706 91.2017 26.9706C90.7545 26.9706 90.4149 27.1155 90.183 27.4054C89.9511 27.6953 89.8352 28.1135 89.8352 28.6602V31.8405C89.8352 32.3872 89.9511 32.8054 90.183 33.0953C90.4149 33.3852 90.7545 33.5301 91.2017 33.5301Z" fill="#fff"/>
<path d="M97.8522 25.9022C98.7053 25.9022 99.3637 26.1506 99.8275 26.6476C100.291 27.1362 100.523 27.8237 100.523 28.7099C100.523 29.6209 100.291 30.3208 99.8275 30.8094C99.3637 31.2981 98.7053 31.5424 97.8522 31.5424H96.8087V34.5985H95.5539V25.9022H97.8522ZM97.8398 30.3497C98.3119 30.3497 98.6639 30.2172 98.8958 29.9522C99.1277 29.6789 99.2436 29.2648 99.2436 28.7099C99.2436 27.6332 98.7757 27.0948 97.8398 27.0948H96.8087V30.3497H97.8398Z" fill="#fff"/>
<path d="M108.602 25.9022V34.5985H107.373V31.207C107.406 29.9895 107.439 29.0536 107.472 28.3993L107.422 28.3744C107.257 28.8382 106.975 29.6002 106.577 30.6603L105.82 32.6356H104.577L103.82 30.6603C103.422 29.6002 103.14 28.8382 102.975 28.3744L102.925 28.3993C102.975 29.6085 103.008 30.5444 103.024 31.207V34.5985H101.794V25.9022H103.074L104.54 29.4304C104.731 29.9025 104.942 30.4781 105.174 31.1573H105.223C105.455 30.4781 105.666 29.9025 105.857 29.4304L107.323 25.9022H108.602Z" fill="#fff"/>
<path d="M114.932 33.4183V34.5985H110.546V25.9022H114.808V27.0824H111.801V29.6043H114.572V30.7597H111.801V33.4183H114.932Z" fill="#fff"/>
<path d="M116.472 25.9022H117.726L119.727 30.3373C119.876 30.6686 120.141 31.3063 120.522 32.2505L120.559 32.2257C120.509 31.8033 120.468 31.3063 120.435 30.7349C120.402 30.1634 120.385 29.683 120.385 29.2938V25.9022H121.627V34.5985H120.373L118.435 30.3373C118.078 29.4511 117.801 28.7471 117.602 28.2253L117.565 28.2502C117.606 28.6809 117.639 29.1861 117.664 29.7658C117.697 30.3373 117.714 30.8301 117.714 31.2442V34.5985H116.472V25.9022Z" fill="#fff"/>
<path d="M127.798 27.0948H125.984V34.5985H124.704V27.0948H122.903V25.9022H127.798V27.0948Z" fill="#fff"/>
<path d="M135.16 32.8468H132.862L132.464 34.5985H131.147L133.334 25.9022H134.688L136.874 34.5985H135.57L135.16 32.8468ZM134.899 31.679L134.352 29.3435C134.228 28.7637 134.121 28.1425 134.029 27.4799H133.992C133.884 28.2668 133.777 28.8879 133.669 29.3435L133.135 31.679H134.899Z" fill="#fff"/>
<path d="M138.037 25.9022H139.292L141.292 30.3373C141.441 30.6686 141.706 31.3063 142.087 32.2505L142.124 32.2257C142.075 31.8033 142.033 31.3063 142 30.7349C141.967 30.1634 141.95 29.683 141.95 29.2938V25.9022H143.193V34.5985H141.938L140 30.3373C139.644 29.4511 139.366 28.7471 139.168 28.2253L139.13 28.2502C139.172 28.6809 139.205 29.1861 139.23 29.7658C139.263 30.3373 139.279 30.8301 139.279 31.2442V34.5985H138.037V25.9022Z" fill="#fff"/>
<path d="M145.127 25.9022H147.289C148.133 25.9022 148.792 26.1424 149.264 26.6227C149.736 27.0948 149.972 27.7574 149.972 28.6105V31.8654C149.972 32.7267 149.736 33.3976 149.264 33.878C148.792 34.3583 148.137 34.5985 147.301 34.5985H145.127V25.9022ZM147.301 33.4059C147.748 33.4059 148.092 33.2734 148.332 33.0083C148.581 32.7433 148.705 32.354 148.705 31.8405V28.6353C148.705 28.1301 148.585 27.7491 148.345 27.4924C148.104 27.2273 147.756 27.0948 147.301 27.0948H146.382V33.4059H147.301Z" fill="#fff"/>
<path d="M158.763 27.0948H156.949V34.5985H155.669V27.0948H153.868V25.9022H158.763V27.0948Z" fill="#fff"/>
<path d="M164.352 33.4183V34.5985H159.966V25.9022H164.228V27.0824H161.221V29.6043H163.992V30.7597H161.221V33.4183H164.352Z" fill="#fff"/>
<path d="M169.122 32.8468H166.823L166.426 34.5985H165.109L167.295 25.9022H168.65L170.836 34.5985H169.532L169.122 32.8468ZM168.861 31.679L168.314 29.3435C168.19 28.7637 168.082 28.1425 167.991 27.4799H167.954C167.846 28.2668 167.738 28.8879 167.631 29.3435L167.097 31.679H168.861Z" fill="#fff"/>
<path d="M174.102 34.7476C173.324 34.7476 172.707 34.5116 172.251 34.0395C171.804 33.5674 171.58 32.9007 171.58 32.0393V28.4614C171.58 27.5918 171.804 26.9209 172.251 26.4488C172.698 25.9767 173.311 25.7407 174.09 25.7407C174.885 25.7407 175.506 25.9726 175.953 26.4364C176.401 26.8919 176.641 27.5503 176.674 28.4117H175.432C175.398 27.9065 175.27 27.5338 175.046 27.2936C174.823 27.0534 174.5 26.9333 174.077 26.9333C173.696 26.9333 173.398 27.0617 173.183 27.3184C172.968 27.5752 172.86 27.9562 172.86 28.4614V32.0393C172.86 32.5445 172.968 32.9255 173.183 33.1823C173.407 33.4307 173.713 33.555 174.102 33.555C174.525 33.555 174.848 33.4349 175.071 33.1947C175.303 32.9545 175.44 32.5859 175.481 32.089H176.724C176.682 32.9421 176.434 33.6005 175.978 34.0643C175.531 34.5198 174.906 34.7476 174.102 34.7476Z" fill="#fff"/>
<path d="M183.112 25.9022V34.5985H181.857V30.7846H179.397V34.5985H178.142V25.9022H179.397V29.6043H181.857V25.9022H183.112Z" fill="#fff"/>
<path d="M185.05 25.9022H186.305V34.5985H185.05V25.9022Z" fill="#fff"/>
<path d="M188.233 25.9022H189.488L191.488 30.3373C191.637 30.6686 191.902 31.3063 192.283 32.2505L192.321 32.2257C192.271 31.8033 192.23 31.3063 192.196 30.7349C192.163 30.1634 192.147 29.683 192.147 29.2938V25.9022H193.389V34.5985H192.134L190.196 30.3373C189.84 29.4511 189.563 28.7471 189.364 28.2253L189.327 28.2502C189.368 28.6809 189.401 29.1861 189.426 29.7658C189.459 30.3373 189.476 30.8301 189.476 31.2442V34.5985H188.233V25.9022Z" fill="#fff"/>
<path d="M197.646 34.7352C196.851 34.7352 196.222 34.4991 195.758 34.0271C195.303 33.555 195.075 32.8841 195.075 32.0145V28.4738C195.075 27.6042 195.298 26.9375 195.746 26.4737C196.201 26.0016 196.826 25.7655 197.622 25.7655C198.4 25.7655 199.009 25.9933 199.448 26.4488C199.887 26.9043 200.123 27.5586 200.156 28.4117H198.914C198.889 27.9148 198.769 27.5503 198.553 27.3184C198.338 27.0865 198.027 26.9706 197.622 26.9706C196.777 26.9706 196.354 27.4758 196.354 28.4862V32.0145C196.354 32.528 196.466 32.909 196.69 33.1574C196.922 33.4059 197.245 33.5301 197.659 33.5301C198.081 33.5301 198.408 33.41 198.64 33.1698C198.872 32.9297 198.988 32.5652 198.988 32.0766V30.9833H197.609V29.8652H200.218V32.0766C200.21 32.9214 199.974 33.5757 199.51 34.0395C199.054 34.5033 198.433 34.7352 197.646 34.7352Z" fill="#fff"/>
<path d="M204.674 25.9022H205.929L207.929 30.3373C208.078 30.6686 208.343 31.3063 208.724 32.2505L208.762 32.2257C208.712 31.8033 208.671 31.3063 208.637 30.7349C208.604 30.1634 208.588 29.683 208.588 29.2938V25.9022H209.83V34.5985H208.575L206.637 30.3373C206.281 29.4511 206.004 28.7471 205.805 28.2253L205.768 28.2502C205.809 28.6809 205.842 29.1861 205.867 29.7658C205.9 30.3373 205.917 30.8301 205.917 31.2442V34.5985H204.674V25.9022Z" fill="#fff"/>
<path d="M216.15 33.4183V34.5985H211.764V25.9022H216.025V27.0824H213.019V29.6043H215.789V30.7597H213.019V33.4183H216.15Z" fill="#fff"/>
<path d="M216.907 25.9022H218.211L219.106 30.6603L219.205 31.1821C219.255 31.472 219.304 31.7743 219.354 32.089C219.412 32.4037 219.462 32.6978 219.503 32.9711H219.553C219.619 32.5073 219.752 31.7163 219.95 30.5982L220.82 26.0388H222.149L223.019 30.5982C223.218 31.7163 223.35 32.5073 223.417 32.9711H223.466C223.508 32.6978 223.553 32.4037 223.603 32.089C223.661 31.7743 223.715 31.472 223.764 31.1821L223.864 30.6603L224.758 25.9022H226.063L224.112 34.5985H222.77L221.926 30.7597C221.835 30.3622 221.748 29.8901 221.665 29.3435C221.59 28.7968 221.541 28.3372 221.516 27.9645H221.466C221.433 28.3537 221.375 28.8217 221.292 29.3683C221.218 29.9149 221.135 30.3787 221.044 30.7597L220.199 34.5985H218.857L216.907 25.9022Z" fill="#fff"/>
<path d="M236.894 25.9022V34.5985H235.664V31.207C235.697 29.9895 235.73 29.0536 235.763 28.3993L235.713 28.3744C235.548 28.8382 235.266 29.6002 234.869 30.6603L234.111 32.6356H232.868L232.111 30.6603C231.713 29.6002 231.431 28.8382 231.266 28.3744L231.216 28.3993C231.266 29.6085 231.299 30.5444 231.316 31.207V34.5985H230.086V25.9022H231.365L232.831 29.4304C233.022 29.9025 233.233 30.4781 233.465 31.1573H233.514C233.746 30.4781 233.958 29.9025 234.148 29.4304L235.614 25.9022H236.894Z" fill="#fff"/>
<path d="M243.223 33.4183V34.5985H238.838V25.9022H243.099V27.0824H240.092V29.6043H242.863V30.7597H240.092V33.4183H243.223Z" fill="#fff"/>
<path d="M248.999 27.0948H247.185V34.5985H245.906V27.0948H244.104V25.9022H248.999V27.0948Z" fill="#fff"/>
<path d="M255.172 25.9022V34.5985H253.917V30.7846H251.457V34.5985H250.203V25.9022H251.457V29.6043H253.917V25.9022H255.172Z" fill="#fff"/>
<path d="M259.521 34.76C258.692 34.76 258.042 34.5033 257.57 33.9898C257.098 33.468 256.862 32.7516 256.862 31.8405V28.6602C256.862 27.7491 257.098 27.0368 257.57 26.5233C258.042 26.0016 258.692 25.7407 259.521 25.7407C260.349 25.7407 260.999 26.0016 261.471 26.5233C261.943 27.0368 262.179 27.7491 262.179 28.6602V31.8405C262.179 32.7516 261.943 33.468 261.471 33.9898C260.999 34.5033 260.349 34.76 259.521 34.76ZM259.521 33.5301C259.968 33.5301 260.307 33.3852 260.539 33.0953C260.771 32.8054 260.887 32.3872 260.887 31.8405V28.6602C260.887 28.1135 260.771 27.6953 260.539 27.4054C260.307 27.1155 259.968 26.9706 259.521 26.9706C259.073 26.9706 258.734 27.1155 258.502 27.4054C258.27 27.6953 258.154 28.1135 258.154 28.6602V31.8405C258.154 32.3872 258.27 32.8054 258.502 33.0953C258.734 33.3852 259.073 33.5301 259.521 33.5301Z" fill="#fff"/>
<path d="M263.873 25.9022H266.034C266.879 25.9022 267.538 26.1424 268.01 26.6227C268.482 27.0948 268.718 27.7574 268.718 28.6105V31.8654C268.718 32.7267 268.482 33.3976 268.01 33.878C267.538 34.3583 266.883 34.5985 266.047 34.5985H263.873V25.9022ZM266.047 33.4059C266.494 33.4059 266.838 33.2734 267.078 33.0083C267.326 32.7433 267.451 32.354 267.451 31.8405V28.6353C267.451 28.1301 267.331 27.7491 267.09 27.4924C266.85 27.2273 266.502 27.0948 266.047 27.0948H265.128V33.4059H266.047Z" fill="#fff"/>
<path d="M272.815 34.76C271.986 34.76 271.336 34.5033 270.864 33.9898C270.392 33.468 270.156 32.7516 270.156 31.8405V28.6602C270.156 27.7491 270.392 27.0368 270.864 26.5233C271.336 26.0016 271.986 25.7407 272.815 25.7407C273.643 25.7407 274.293 26.0016 274.765 26.5233C275.237 27.0368 275.473 27.7491 275.473 28.6602V31.8405C275.473 32.7516 275.237 33.468 274.765 33.9898C274.293 34.5033 273.643 34.76 272.815 34.76ZM272.815 33.5301C273.262 33.5301 273.601 33.3852 273.833 33.0953C274.065 32.8054 274.181 32.3872 274.181 31.8405V28.6602C274.181 28.1135 274.065 27.6953 273.833 27.4054C273.601 27.1155 273.262 26.9706 272.815 26.9706C272.367 26.9706 272.028 27.1155 271.796 27.4054C271.564 27.6953 271.448 28.1135 271.448 28.6602V31.8405C271.448 32.3872 271.564 32.8054 271.796 33.0953C272.028 33.3852 272.367 33.5301 272.815 33.5301Z" fill="#fff"/>
<path d="M281.304 33.4059V34.5985H277.167V25.9022H278.422V33.4059H281.304Z" fill="#fff"/>
<path d="M284.871 34.76C284.043 34.76 283.393 34.5033 282.921 33.9898C282.449 33.468 282.213 32.7516 282.213 31.8405V28.6602C282.213 27.7491 282.449 27.0368 282.921 26.5233C283.393 26.0016 284.043 25.7407 284.871 25.7407C285.699 25.7407 286.35 26.0016 286.822 26.5233C287.294 27.0368 287.53 27.7491 287.53 28.6602V31.8405C287.53 32.7516 287.294 33.468 286.822 33.9898C286.35 34.5033 285.699 34.76 284.871 34.76ZM284.871 33.5301C285.318 33.5301 285.658 33.3852 285.89 33.0953C286.122 32.8054 286.238 32.3872 286.238 31.8405V28.6602C286.238 28.1135 286.122 27.6953 285.89 27.4054C285.658 27.1155 285.318 26.9706 284.871 26.9706C284.424 26.9706 284.084 27.1155 283.853 27.4054C283.621 27.6953 283.505 28.1135 283.505 28.6602V31.8405C283.505 32.3872 283.621 32.8054 283.853 33.0953C284.084 33.3852 284.424 33.5301 284.871 33.5301Z" fill="#fff"/>
<path d="M291.547 34.7352C290.751 34.7352 290.122 34.4991 289.658 34.0271C289.203 33.555 288.975 32.8841 288.975 32.0145V28.4738C288.975 27.6042 289.199 26.9375 289.646 26.4737C290.101 26.0016 290.727 25.7655 291.522 25.7655C292.3 25.7655 292.909 25.9933 293.348 26.4488C293.787 26.9043 294.023 27.5586 294.056 28.4117H292.814C292.789 27.9148 292.669 27.5503 292.453 27.3184C292.238 27.0865 291.928 26.9706 291.522 26.9706C290.677 26.9706 290.255 27.4758 290.255 28.4862V32.0145C290.255 32.528 290.366 32.909 290.59 33.1574C290.822 33.4059 291.145 33.5301 291.559 33.5301C291.981 33.5301 292.309 33.41 292.54 33.1698C292.772 32.9297 292.888 32.5652 292.888 32.0766V30.9833H291.509V29.8652H294.118V32.0766C294.11 32.9214 293.874 33.5757 293.41 34.0395C292.955 34.5033 292.333 34.7352 291.547 34.7352Z" fill="#fff"/>
<path d="M295.61 25.9022H296.864V34.5985H295.61V25.9022Z" fill="#fff"/>
<path d="M303.178 33.4183V34.5985H298.793V25.9022H303.054V27.0824H300.048V29.6043H302.818V30.7597H300.048V33.4183H303.178Z" fill="#fff"/>
<path d="M306.718 34.76C305.94 34.76 305.323 34.5323 304.867 34.0767C304.412 33.6212 304.18 33.0001 304.171 32.2132H305.451C305.459 32.6522 305.571 32.9835 305.786 33.2071C306.01 33.4307 306.321 33.5425 306.718 33.5425C307.124 33.5425 307.43 33.4349 307.638 33.2195C307.853 33.0042 307.961 32.7143 307.961 32.3499C307.961 32.002 307.832 31.708 307.575 31.4678C307.319 31.2194 306.929 30.9419 306.408 30.6355C305.952 30.3539 305.588 30.1054 305.314 29.8901C305.041 29.6747 304.805 29.4056 304.606 29.0826C304.416 28.7596 304.32 28.3786 304.32 27.9396C304.32 27.5255 304.416 27.1528 304.606 26.8215C304.805 26.4819 305.082 26.2169 305.439 26.0264C305.803 25.8359 306.225 25.7407 306.706 25.7407C307.443 25.7407 308.027 25.9602 308.457 26.3991C308.888 26.8381 309.112 27.4303 309.128 28.1757H307.849C307.84 27.7698 307.737 27.4634 307.538 27.2563C307.339 27.0493 307.066 26.9457 306.718 26.9457C306.37 26.9457 306.097 27.0368 305.898 27.2191C305.699 27.4013 305.6 27.6497 305.6 27.9645C305.6 28.2046 305.666 28.4158 305.799 28.598C305.931 28.7803 306.093 28.9418 306.283 29.0826C306.482 29.2151 306.76 29.389 307.116 29.6043C307.58 29.8777 307.952 30.122 308.234 30.3373C308.515 30.5527 308.756 30.8301 308.954 31.1697C309.153 31.501 309.253 31.8985 309.253 32.3623C309.253 32.8013 309.153 33.203 308.954 33.5674C308.756 33.9318 308.462 34.2217 308.072 34.437C307.691 34.6524 307.24 34.76 306.718 34.76Z" fill="#fff"/>
<path d="M63.3294 43.0948H61.5156V50.5985H60.236V43.0948H58.4346V41.9022H63.3294V43.0948Z" fill="#fff"/>
<path d="M67.0037 50.76C66.1755 50.76 65.5253 50.5033 65.0532 49.9898C64.5811 49.468 64.3451 48.7516 64.3451 47.8405V44.6602C64.3451 43.7491 64.5811 43.0368 65.0532 42.5233C65.5253 42.0016 66.1755 41.7407 67.0037 41.7407C67.8319 41.7407 68.4821 42.0016 68.9541 42.5233C69.4262 43.0368 69.6623 43.7491 69.6623 44.6602V47.8405C69.6623 48.7516 69.4262 49.468 68.9541 49.9898C68.4821 50.5033 67.8319 50.76 67.0037 50.76ZM67.0037 49.5301C67.4509 49.5301 67.7905 49.3852 68.0224 49.0953C68.2543 48.8054 68.3702 48.3872 68.3702 47.8405V44.6602C68.3702 44.1135 68.2543 43.6953 68.0224 43.4054C67.7905 43.1155 67.4509 42.9706 67.0037 42.9706C66.5564 42.9706 66.2169 43.1155 65.985 43.4054C65.7531 43.6953 65.6371 44.1135 65.6371 44.6602V47.8405C65.6371 48.3872 65.7531 48.8054 65.985 49.0953C66.2169 49.3852 66.5564 49.5301 67.0037 49.5301Z" fill="#fff"/>
<path d="M78.46 43.0948H76.6462V50.5985H75.3666V43.0948H73.5652V41.9022H78.46V43.0948Z" fill="#fff"/>
<path d="M84.049 49.4183V50.5985H79.6636V41.9022H83.9248V43.0824H80.9183V45.6043H83.6887V46.7597H80.9183V49.4183H84.049Z" fill="#fff"/>
<path d="M88.8188 48.8468H86.5205L86.1229 50.5985H84.806L86.9926 41.9022H88.3467L90.5332 50.5985H89.2288L88.8188 48.8468ZM88.5579 47.679L88.0113 45.3434C87.887 44.7637 87.7794 44.1425 87.6883 43.4799H87.651C87.5433 44.2668 87.4357 44.8879 87.328 45.3434L86.7938 47.679H88.5579Z" fill="#fff"/>
<path d="M93.7995 50.7476C93.021 50.7476 92.4039 50.5116 91.9484 50.0395C91.5012 49.5674 91.2775 48.9007 91.2775 48.0393V44.4614C91.2775 43.5918 91.5012 42.9209 91.9484 42.4488C92.3957 41.9767 93.0085 41.7407 93.7871 41.7407C94.5822 41.7407 95.2033 41.9726 95.6506 42.4364C96.0978 42.8919 96.338 43.5503 96.3711 44.4117H95.1288C95.0957 43.9065 94.9673 43.5338 94.7437 43.2936C94.52 43.0534 94.197 42.9333 93.7746 42.9333C93.3937 42.9333 93.0955 43.0617 92.8802 43.3184C92.6648 43.5752 92.5572 43.9562 92.5572 44.4614V48.0393C92.5572 48.5445 92.6648 48.9255 92.8802 49.1823C93.1038 49.4307 93.4102 49.555 93.7995 49.555C94.2219 49.555 94.5449 49.4349 94.7685 49.1947C95.0004 48.9545 95.1371 48.5859 95.1785 48.089H96.4208C96.3794 48.9421 96.1309 49.6005 95.6754 50.0643C95.2282 50.5198 94.6029 50.7476 93.7995 50.7476Z" fill="#fff"/>
<path d="M102.809 41.9022V50.5985H101.554V46.7846H99.0942V50.5985H97.8394V41.9022H99.0942V45.6043H101.554V41.9022H102.809Z" fill="#fff"/>
<path d="M109.133 49.4183V50.5985H104.747V41.9022H109.008V43.0824H106.002V45.6043H108.772V46.7597H106.002V49.4183H109.133Z" fill="#fff"/>
<path d="M112.71 47.443H111.927V50.5985H110.672V41.9022H112.921C113.749 41.9022 114.391 42.1424 114.847 42.6227C115.302 43.0948 115.53 43.7615 115.53 44.6229C115.53 45.2938 115.393 45.8569 115.12 46.3125C114.847 46.768 114.462 47.0869 113.965 47.2691L115.853 50.5985H114.462L112.71 47.443ZM111.927 46.2504H112.896C113.335 46.2504 113.666 46.1137 113.89 45.8404C114.122 45.5671 114.238 45.1695 114.238 44.6477C114.238 44.1342 114.126 43.7491 113.903 43.4924C113.679 43.2273 113.348 43.0948 112.909 43.0948H111.927V46.2504Z" fill="#fff"/>
<path d="M119.095 50.76C118.317 50.76 117.7 50.5323 117.244 50.0767C116.789 49.6212 116.557 49.0001 116.548 48.2132H117.828C117.836 48.6522 117.948 48.9835 118.163 49.2071C118.387 49.4307 118.698 49.5425 119.095 49.5425C119.501 49.5425 119.807 49.4349 120.015 49.2195C120.23 49.0042 120.338 48.7143 120.338 48.3499C120.338 48.002 120.209 47.708 119.952 47.4678C119.696 47.2194 119.306 46.9419 118.785 46.6355C118.329 46.3539 117.965 46.1054 117.691 45.8901C117.418 45.6747 117.182 45.4056 116.983 45.0826C116.793 44.7596 116.697 44.3786 116.697 43.9396C116.697 43.5255 116.793 43.1528 116.983 42.8215C117.182 42.4819 117.459 42.2169 117.816 42.0264C118.18 41.8359 118.602 41.7407 119.083 41.7407C119.82 41.7407 120.404 41.9602 120.834 42.3991C121.265 42.8381 121.489 43.4303 121.505 44.1757H120.226C120.217 43.7698 120.114 43.4634 119.915 43.2563C119.716 43.0493 119.443 42.9457 119.095 42.9457C118.747 42.9457 118.474 43.0368 118.275 43.2191C118.076 43.4013 117.977 43.6497 117.977 43.9645C117.977 44.2046 118.043 44.4158 118.176 44.598C118.308 44.7803 118.47 44.9418 118.66 45.0826C118.859 45.2151 119.137 45.389 119.493 45.6043C119.957 45.8777 120.329 46.122 120.611 46.3373C120.892 46.5527 121.133 46.8301 121.331 47.1697C121.53 47.501 121.63 47.8985 121.63 48.3623C121.63 48.8013 121.53 49.203 121.331 49.5674C121.133 49.9318 120.839 50.2217 120.449 50.437C120.068 50.6524 119.617 50.76 119.095 50.76Z" fill="#fff"/>
<path d="M125.937 41.9022H127.191L129.191 46.3373C129.341 46.6686 129.606 47.3063 129.987 48.2505L130.024 48.2257C129.974 47.8033 129.933 47.3063 129.9 46.7349C129.866 46.1634 129.85 45.683 129.85 45.2938V41.9022H131.092V50.5985H129.838L127.899 46.3373C127.543 45.4511 127.266 44.7471 127.067 44.2253L127.03 44.2502C127.071 44.6809 127.104 45.1861 127.129 45.7658C127.162 46.3373 127.179 46.8301 127.179 47.2442V50.5985H125.937V41.9022Z" fill="#fff"/>
<path d="M136.256 48.8468H133.958L133.561 50.5985H132.244L134.43 41.9022H135.784L137.971 50.5985H136.666L136.256 48.8468ZM135.996 47.679L135.449 45.3434C135.325 44.7637 135.217 44.1425 135.126 43.4799H135.089C134.981 44.2668 134.873 44.8879 134.766 45.3434L134.231 47.679H135.996Z" fill="#fff"/>
<path d="M145.942 41.9022V50.5985H144.712V47.207C144.745 45.9895 144.778 45.0536 144.811 44.3993L144.761 44.3744C144.596 44.8382 144.314 45.6002 143.917 46.6603L143.159 48.6356H141.916L141.159 46.6603C140.761 45.6002 140.479 44.8382 140.314 44.3744L140.264 44.3993C140.314 45.6085 140.347 46.5444 140.363 47.207V50.5985H139.134V41.9022H140.413L141.879 45.4304C142.07 45.9025 142.281 46.4781 142.513 47.1573H142.562C142.794 46.4781 143.006 45.9025 143.196 45.4304L144.662 41.9022H145.942Z" fill="#fff"/>
<path d="M152.271 49.4183V50.5985H147.886V41.9022H152.147V43.0824H149.14V45.6043H151.911V46.7597H149.14V49.4183H152.271Z" fill="#fff"/>
<path d="M153.811 41.9022H155.972C156.817 41.9022 157.476 42.1424 157.948 42.6227C158.42 43.0948 158.656 43.7574 158.656 44.6105V47.8654C158.656 48.7267 158.42 49.3976 157.948 49.878C157.476 50.3583 156.821 50.5985 155.985 50.5985H153.811V41.9022ZM155.985 49.4059C156.432 49.4059 156.776 49.2734 157.016 49.0083C157.264 48.7433 157.389 48.354 157.389 47.8405V44.6353C157.389 44.1301 157.269 43.7491 157.028 43.4924C156.788 43.2273 156.44 43.0948 155.985 43.0948H155.065V49.4059H155.985Z" fill="#fff"/>
<path d="M166.44 48.8468H164.142L163.745 50.5985H162.428L164.614 41.9022H165.968L168.155 50.5985H166.85L166.44 48.8468ZM166.179 47.679L165.633 45.3434C165.509 44.7637 165.401 44.1425 165.31 43.4799H165.273C165.165 44.2668 165.057 44.8879 164.95 45.3434L164.415 47.679H166.179Z" fill="#fff"/>
<path d="M170.572 43.0824V45.6789H173.194V46.8218H170.572V50.5985H169.317V41.9022H173.417V43.0824H170.572Z" fill="#fff"/>
<path d="M179.03 43.0948H177.216V50.5985H175.937V43.0948H174.135V41.9022H179.03V43.0948Z" fill="#fff"/>
<path d="M184.619 49.4183V50.5985H180.234V41.9022H184.495V43.0824H181.488V45.6043H184.259V46.7597H181.488V49.4183H184.619Z" fill="#fff"/>
<path d="M188.196 47.443H187.414V50.5985H186.159V41.9022H188.407C189.236 41.9022 189.878 42.1424 190.333 42.6227C190.789 43.0948 191.016 43.7615 191.016 44.6229C191.016 45.2938 190.88 45.8569 190.606 46.3125C190.333 46.768 189.948 47.0869 189.451 47.2691L191.339 50.5985H189.948L188.196 47.443ZM187.414 46.2504H188.383C188.822 46.2504 189.153 46.1137 189.376 45.8404C189.608 45.5671 189.724 45.1695 189.724 44.6477C189.724 44.1342 189.612 43.7491 189.389 43.4924C189.165 43.2273 188.834 43.0948 188.395 43.0948H187.414V46.2504Z" fill="#fff"/>
<path d="M198.716 48.8468H196.417L196.02 50.5985H194.703L196.889 41.9022H198.244L200.43 50.5985H199.126L198.716 48.8468ZM198.455 47.679L197.908 45.3434C197.784 44.7637 197.676 44.1425 197.585 43.4799H197.548C197.44 44.2668 197.333 44.8879 197.225 45.3434L196.691 47.679H198.455Z" fill="#fff"/>
<path d="M201.928 50.7352C201.705 50.7352 201.522 50.6689 201.382 50.5364C201.241 50.3956 201.17 50.2093 201.17 49.9774C201.17 49.7537 201.241 49.5757 201.382 49.4432C201.522 49.3024 201.705 49.232 201.928 49.232C202.152 49.232 202.334 49.3024 202.475 49.4432C202.616 49.5757 202.686 49.7537 202.686 49.9774C202.686 50.2093 202.616 50.3956 202.475 50.5364C202.334 50.6689 202.152 50.7352 201.928 50.7352Z" fill="#fff"/>
<path d="M207.436 48.8468H205.138L204.74 50.5985H203.423L205.61 41.9022H206.964L209.15 50.5985H207.846L207.436 48.8468ZM207.175 47.679L206.628 45.3434C206.504 44.7637 206.396 44.1425 206.305 43.4799H206.268C206.16 44.2668 206.053 44.8879 205.945 45.3434L205.411 47.679H207.175Z" fill="#fff"/>
<path d="M209.178 41.9022H210.495L211.539 46.6976C211.638 47.1531 211.754 47.7701 211.887 48.5487C211.912 48.6563 211.941 48.8096 211.974 49.0083H212.023C212.214 47.9399 212.359 47.1697 212.458 46.6976L213.514 41.9022H214.819L212.682 50.5985H211.315L209.178 41.9022Z" fill="#fff"/>
<path d="M220.12 49.4059V50.5985H215.983V41.9022H217.238V49.4059H220.12Z" fill="#fff"/>
<path d="M223.688 50.76C222.86 50.76 222.209 50.5033 221.737 49.9898C221.265 49.468 221.029 48.7516 221.029 47.8405V44.6602C221.029 43.7491 221.265 43.0368 221.737 42.5233C222.209 42.0016 222.86 41.7407 223.688 41.7407C224.516 41.7407 225.166 42.0016 225.638 42.5233C226.11 43.0368 226.346 43.7491 226.346 44.6602V47.8405C226.346 48.7516 226.11 49.468 225.638 49.9898C225.166 50.5033 224.516 50.76 223.688 50.76ZM223.688 49.5301C224.135 49.5301 224.475 49.3852 224.706 49.0953C224.938 48.8054 225.054 48.3872 225.054 47.8405V44.6602C225.054 44.1135 224.938 43.6953 224.706 43.4054C224.475 43.1155 224.135 42.9706 223.688 42.9706C223.241 42.9706 222.901 43.1155 222.669 43.4054C222.437 43.6953 222.321 44.1135 222.321 44.6602V47.8405C222.321 48.3872 222.437 48.8054 222.669 49.0953C222.901 49.3852 223.241 49.5301 223.688 49.5301Z" fill="#fff"/>
<path d="M228.04 41.9022H229.295L231.295 46.3373C231.444 46.6686 231.709 47.3063 232.09 48.2505L232.127 48.2257C232.078 47.8033 232.036 47.3063 232.003 46.7349C231.97 46.1634 231.953 45.683 231.953 45.2938V41.9022H233.196V50.5985H231.941L230.003 46.3373C229.647 45.4511 229.369 44.7471 229.17 44.2253L229.133 44.2502C229.175 44.6809 229.208 45.1861 229.233 45.7658C229.266 46.3373 229.282 46.8301 229.282 47.2442V50.5985H228.04V41.9022Z" fill="#fff"/>
<path d="M235.13 41.9022H236.385V50.5985H235.13V41.9022Z" fill="#fff"/>
</g>
<defs>
<clipPath id="clip0_1501_13807">
<rect width="315.924" height="62.0036" fill="white" transform="translate(0.0634766)"/>
</clipPath>
</defs>
</svg>
