<svg width="316" height="63" viewBox="0 0 316 63" fill="none" xmlns="http://www.w3.org/2000/svg">
<g clip-path="url(#clip0_1501_13791)">
<path d="M23.1501 23.8808L0.383789 11.9207L23.1501 0L45.9165 11.9207L23.1501 23.8808ZM5.54523 11.9207L23.1501 21.1662L40.7551 11.9207L23.1501 2.71462L5.54523 11.9207Z" fill="#fff"/>
<path d="M46.2364 16.2877V44.0634L23.2299 56.2989L0.0634766 44.0634V16.2877L2.50416 17.586V42.6078L23.2299 53.5843L43.7957 42.6471V17.586L46.2364 16.2877Z" fill="#D2AA1B"/>
<path d="M23.2297 62.0035L1.82373 50.7123L1.86374 47.9977L23.2297 59.2889L44.4356 47.9977V50.7516L23.2297 62.0035Z" fill="#fff"/>
<path d="M7.82593 20.0646V42.057L5.38525 40.7194V18.8057L7.82593 20.0646Z" fill="#fff"/>
<path d="M40.7151 18.9237V40.562L38.2744 42.057V20.1826L40.7151 18.9237Z" fill="#fff"/>
<path d="M23.1504 25.4152L11.187 45.7552H13.9078L15.3482 43.3159H19.0292L20.3896 40.9947H16.7086L23.1504 30.0182L25.511 34.0311L18.6291 45.7158H21.3498L22.8303 43.1979H30.9125L32.3929 45.7158H35.1137L23.1504 25.4152ZM24.1906 40.916L26.8714 36.3917L29.5521 40.916H24.1906Z" fill="#D2AA1B"/>
<path d="M64.0621 9.90218V18.5985H62.8074V14.7846H60.3475V18.5985H59.0928V9.90218H60.3475V13.6043H62.8074V9.90218H64.0621Z" fill="#fff"/>
<path d="M69.2307 16.8468H66.9324L66.5348 18.5985H65.218L67.4045 9.90218H68.7586L70.9451 18.5985H69.6407L69.2307 16.8468ZM68.9698 15.679L68.4232 13.3434C68.299 12.7637 68.1913 12.1425 68.1002 11.4799H68.0629C67.9553 12.2668 67.8476 12.8879 67.7399 13.3434L67.2057 15.679H68.9698Z" fill="#fff"/>
<path d="M76.5926 18.5985H72.1078V9.90218H73.3625V17.4059H75.7727V9.90218H77.0274V17.4059H77.8225V20.0521H76.5926V18.5985Z" fill="#fff"/>
<path d="M79.1248 9.90218H80.3548V13.7037C80.3548 14.0433 80.3423 14.4574 80.3175 14.9461C80.2926 15.4347 80.2595 15.8571 80.2181 16.2132L80.2554 16.2381C80.5453 15.4761 80.7523 14.9626 80.8765 14.6976L82.9885 9.90218H84.2681V18.5985H83.0382V14.8094C83.0382 14.4781 83.0465 14.0599 83.0631 13.5546C83.0879 13.0494 83.1169 12.6188 83.15 12.2626L83.1127 12.2378C82.8643 12.9252 82.6572 13.4594 82.4916 13.8404L80.392 18.5985H79.1248V9.90218Z" fill="#fff"/>
<path d="M88.6127 18.76C87.7845 18.76 87.1343 18.5033 86.6622 17.9898C86.1901 17.468 85.9541 16.7516 85.9541 15.8405V12.6602C85.9541 11.7491 86.1901 11.0368 86.6622 10.5233C87.1343 10.0016 87.7845 9.74068 88.6127 9.74068C89.4409 9.74068 90.0911 10.0016 90.5632 10.5233C91.0353 11.0368 91.2713 11.7491 91.2713 12.6602V15.8405C91.2713 16.7516 91.0353 17.468 90.5632 17.9898C90.0911 18.5033 89.4409 18.76 88.6127 18.76ZM88.6127 17.5301C89.0599 17.5301 89.3995 17.3852 89.6314 17.0953C89.8633 16.8054 89.9793 16.3872 89.9793 15.8405V12.6602C89.9793 12.1135 89.8633 11.6953 89.6314 11.4054C89.3995 11.1155 89.0599 10.9706 88.6127 10.9706C88.1655 10.9706 87.8259 11.1155 87.594 11.4054C87.3621 11.6953 87.2461 12.1135 87.2461 12.6602V15.8405C87.2461 16.3872 87.3621 16.8054 87.594 17.0953C87.8259 17.3852 88.1655 17.5301 88.6127 17.5301Z" fill="#fff"/>
<path d="M97.9342 9.90218V18.5985H96.6794V14.7846H94.2196V18.5985H92.9649V9.90218H94.2196V13.6043H96.6794V9.90218H97.9342Z" fill="#fff"/>
<path d="M103.103 16.8468H100.804L100.407 18.5985H99.09L101.277 9.90218H102.631L104.817 18.5985H103.513L103.103 16.8468ZM102.842 15.679L102.295 13.3434C102.171 12.7637 102.063 12.1425 101.972 11.4799H101.935C101.827 12.2668 101.72 12.8879 101.612 13.3434L101.078 15.679H102.842Z" fill="#fff"/>
<path d="M105.232 17.5798C105.505 17.5798 105.716 17.4887 105.865 17.3065C106.014 17.116 106.122 16.7971 106.188 16.3499C106.254 15.9109 106.317 15.1904 106.375 14.1882C106.441 13.1861 106.511 11.7574 106.586 9.90218H110.884V18.5985H109.629V11.0824H107.791C107.716 12.5484 107.65 13.7244 107.592 14.6106C107.534 15.4885 107.468 16.1636 107.393 16.6356C107.286 17.3976 107.054 17.9359 106.698 18.2507C106.35 18.5654 105.861 18.7228 105.232 18.7228V17.5798Z" fill="#fff"/>
<path d="M112.827 9.90218H114.082V13.3683H115.15C115.978 13.3683 116.62 13.6043 117.076 14.0764C117.531 14.5485 117.759 15.1862 117.759 15.9896C117.759 16.8427 117.536 17.4928 117.088 17.9401C116.641 18.379 115.995 18.5985 115.15 18.5985H112.827V9.90218ZM115.088 17.4432C115.527 17.4432 115.867 17.3231 116.107 17.0829C116.347 16.8344 116.467 16.47 116.467 15.9896C116.467 15.5175 116.347 15.1614 116.107 14.9212C115.867 14.681 115.527 14.5609 115.088 14.5609H114.082V17.4432H115.088Z" fill="#fff"/>
<path d="M124.049 9.90218V18.5985H122.794V14.7846H120.335V18.5985H119.08V9.90218H120.335V13.6043H122.794V9.90218H124.049Z" fill="#fff"/>
<path d="M125.988 9.90218H127.267V13.3807H128.149C128.994 13.3807 129.644 13.6168 130.1 14.0889C130.555 14.5527 130.783 15.1862 130.783 15.9896C130.783 16.8427 130.559 17.4928 130.112 17.9401C129.665 18.379 129.011 18.5985 128.149 18.5985H125.988V9.90218ZM131.814 9.90218H133.069V18.5985H131.814V9.90218ZM128.087 17.4307C128.534 17.4307 128.878 17.3106 129.118 17.0705C129.359 16.8303 129.479 16.47 129.479 15.9896C129.479 15.5258 129.359 15.1738 129.118 14.9336C128.878 14.6935 128.534 14.5734 128.087 14.5734H127.267V17.4307H128.087Z" fill="#fff"/>
<path d="M134.994 9.90218H136.224V13.7037C136.224 14.0433 136.212 14.4574 136.187 14.9461C136.162 15.4347 136.129 15.8571 136.088 16.2132L136.125 16.2381C136.415 15.4761 136.622 14.9626 136.746 14.6976L138.858 9.90218H140.138V18.5985H138.908V14.8094C138.908 14.4781 138.916 14.0599 138.933 13.5546C138.957 13.0494 138.986 12.6188 139.02 12.2626L138.982 12.2378C138.734 12.9252 138.527 13.4594 138.361 13.8404L136.262 18.5985H134.994V9.90218ZM137.603 9.05739C137.164 9.05739 136.808 8.92488 136.535 8.65985C136.262 8.39481 136.117 8.0304 136.1 7.56659H136.957C136.966 7.78193 137.024 7.94757 137.131 8.06352C137.247 8.17119 137.4 8.22503 137.591 8.22503C137.781 8.22503 137.935 8.17119 138.051 8.06352C138.167 7.94757 138.229 7.78193 138.237 7.56659H139.094C139.078 8.03868 138.933 8.40724 138.659 8.67227C138.394 8.92902 138.042 9.05739 137.603 9.05739Z" fill="#fff"/>
<path d="M144.94 9.90218H146.17V13.7037C146.17 14.0433 146.157 14.4574 146.133 14.9461C146.108 15.4347 146.075 15.8571 146.033 16.2132L146.071 16.2381C146.36 15.4761 146.567 14.9626 146.692 14.6976L148.804 9.90218H150.083V18.5985H148.853V14.8094C148.853 14.4781 148.862 14.0599 148.878 13.5546C148.903 13.0494 148.932 12.6188 148.965 12.2626L148.928 12.2378C148.679 12.9252 148.472 13.4594 148.307 13.8404L146.207 18.5985H144.94V9.90218Z" fill="#fff"/>
<path d="M154.291 18.7476C153.513 18.7476 152.896 18.5116 152.44 18.0395C151.993 17.5674 151.769 16.9007 151.769 16.0393V12.4614C151.769 11.5918 151.993 10.9209 152.44 10.4488C152.887 9.97672 153.5 9.74068 154.279 9.74068C155.074 9.74068 155.695 9.97258 156.142 10.4364C156.589 10.8919 156.83 11.5503 156.863 12.4117H155.62C155.587 11.9065 155.459 11.5338 155.235 11.2936C155.012 11.0534 154.689 10.9333 154.266 10.9333C153.885 10.9333 153.587 11.0617 153.372 11.3184C153.157 11.5752 153.049 11.9562 153.049 12.4614V16.0393C153.049 16.5445 153.157 16.9255 153.372 17.1823C153.595 17.4307 153.902 17.555 154.291 17.555C154.714 17.555 155.037 17.4349 155.26 17.1947C155.492 16.9545 155.629 16.5859 155.67 16.089H156.913C156.871 16.9421 156.623 17.6005 156.167 18.0643C155.72 18.5198 155.095 18.7476 154.291 18.7476Z" fill="#fff"/>
<path d="M160.605 18.7476C159.826 18.7476 159.209 18.5116 158.753 18.0395C158.306 17.5674 158.083 16.9007 158.083 16.0393V12.4614C158.083 11.5918 158.306 10.9209 158.753 10.4488C159.201 9.97672 159.814 9.74068 160.592 9.74068C161.387 9.74068 162.008 9.97258 162.456 10.4364C162.903 10.8919 163.143 11.5503 163.176 12.4117H161.934C161.901 11.9065 161.772 11.5338 161.549 11.2936C161.325 11.0534 161.002 10.9333 160.58 10.9333C160.199 10.9333 159.901 11.0617 159.685 11.3184C159.47 11.5752 159.362 11.9562 159.362 12.4614V16.0393C159.362 16.5445 159.47 16.9255 159.685 17.1823C159.909 17.4307 160.215 17.555 160.605 17.555C161.027 17.555 161.35 17.4349 161.574 17.1947C161.805 16.9545 161.942 16.5859 161.984 16.089H163.226C163.184 16.9421 162.936 17.6005 162.48 18.0643C162.033 18.5198 161.408 18.7476 160.605 18.7476Z" fill="#fff"/>
<path d="M163.775 17.5798C164.048 17.5798 164.259 17.4887 164.408 17.3065C164.558 17.116 164.665 16.7971 164.731 16.3499C164.798 15.9109 164.86 15.1904 164.918 14.1882C164.984 13.1861 165.054 11.7574 165.129 9.90218H169.427V18.5985H168.173V11.0824H166.334C166.26 12.5484 166.193 13.7244 166.135 14.6106C166.077 15.4885 166.011 16.1636 165.937 16.6356C165.829 17.3976 165.597 17.9359 165.241 18.2507C164.893 18.5654 164.404 18.7228 163.775 18.7228V17.5798Z" fill="#fff"/>
<path d="M175.756 17.4183V18.5985H171.37V9.90218H175.632V11.0824H172.625V13.6043H175.396V14.7597H172.625V17.4183H175.756Z" fill="#fff"/>
<path d="M183.097 17.4183V20.0521H181.867V18.5985H177.73V20.0521H176.5V17.4183H177.01C177.308 17.1119 177.54 16.6646 177.706 16.0766C177.871 15.4885 177.966 14.8301 177.991 14.1013L178.14 9.90218H182.327V17.4183H183.097ZM181.085 11.0824H179.321L179.196 14.4491C179.147 15.708 178.919 16.6978 178.513 17.4183H181.085V11.0824Z" fill="#fff"/>
<path d="M186.808 18.76C185.979 18.76 185.329 18.5033 184.857 17.9898C184.385 17.468 184.149 16.7516 184.149 15.8405V12.6602C184.149 11.7491 184.385 11.0368 184.857 10.5233C185.329 10.0016 185.979 9.74068 186.808 9.74068C187.636 9.74068 188.286 10.0016 188.758 10.5233C189.23 11.0368 189.466 11.7491 189.466 12.6602V15.8405C189.466 16.7516 189.23 17.468 188.758 17.9898C188.286 18.5033 187.636 18.76 186.808 18.76ZM186.808 17.5301C187.255 17.5301 187.594 17.3852 187.826 17.0953C188.058 16.8054 188.174 16.3872 188.174 15.8405V12.6602C188.174 12.1135 188.058 11.6953 187.826 11.4054C187.594 11.1155 187.255 10.9706 186.808 10.9706C186.36 10.9706 186.021 11.1155 185.789 11.4054C185.557 11.6953 185.441 12.1135 185.441 12.6602V15.8405C185.441 16.3872 185.557 16.8054 185.789 17.0953C186.021 17.3852 186.36 17.5301 186.808 17.5301Z" fill="#fff"/>
<path d="M194.949 14.1261C195.322 14.2835 195.616 14.5361 195.831 14.8839C196.046 15.2318 196.154 15.6418 196.154 16.1139C196.154 16.8841 195.926 17.4928 195.471 17.9401C195.015 18.379 194.406 18.5985 193.644 18.5985H191.16V9.90218H193.52C194.224 9.90218 194.783 10.1175 195.197 10.5482C195.62 10.9706 195.831 11.5421 195.831 12.2626C195.831 12.6767 195.752 13.0494 195.595 13.3807C195.438 13.7037 195.222 13.9522 194.949 14.1261ZM192.415 11.0824V13.5795H193.408C194.17 13.5795 194.551 13.153 194.551 12.2999C194.551 11.8858 194.456 11.5793 194.266 11.3806C194.075 11.1818 193.777 11.0824 193.371 11.0824H192.415ZM193.483 17.4183C194.411 17.4183 194.874 16.9835 194.874 16.1139C194.874 15.6749 194.746 15.3395 194.489 15.1076C194.233 14.8757 193.881 14.7597 193.433 14.7597H192.415V17.4183H193.483Z" fill="#fff"/>
<path d="M200.655 16.8468H198.356L197.959 18.5985H196.642L198.829 9.90218H200.183L202.369 18.5985H201.065L200.655 16.8468ZM200.394 15.679L199.847 13.3434C199.723 12.7637 199.615 12.1425 199.524 11.4799H199.487C199.379 12.2668 199.272 12.8879 199.164 13.3434L198.63 15.679H200.394Z" fill="#fff"/>
<path d="M207.307 11.0948H205.493V18.5985H204.214V11.0948H202.412V9.90218H207.307V11.0948Z" fill="#fff"/>
<path d="M212.896 17.4183V18.5985H208.511V9.90218H212.772V11.0824H209.765V13.6043H212.536V14.7597H209.765V17.4183H212.896Z" fill="#fff"/>
<path d="M213.566 17.5798C213.84 17.5798 214.051 17.4887 214.2 17.3065C214.349 17.116 214.457 16.7971 214.523 16.3499C214.589 15.9109 214.651 15.1904 214.709 14.1882C214.775 13.1861 214.846 11.7574 214.92 9.90218H219.219V18.5985H217.964V11.0824H216.125C216.051 12.5484 215.985 13.7244 215.927 14.6106C215.869 15.4885 215.802 16.1636 215.728 16.6356C215.62 17.3976 215.388 17.9359 215.032 18.2507C214.684 18.5654 214.196 18.7228 213.566 18.7228V17.5798Z" fill="#fff"/>
<path d="M221.162 9.90218H222.416V13.3683H223.485C224.313 13.3683 224.955 13.6043 225.411 14.0764C225.866 14.5485 226.094 15.1862 226.094 15.9896C226.094 16.8427 225.87 17.4928 225.423 17.9401C224.976 18.379 224.33 18.5985 223.485 18.5985H221.162V9.90218ZM223.423 17.4432C223.862 17.4432 224.201 17.3231 224.441 17.0829C224.682 16.8344 224.802 16.47 224.802 15.9896C224.802 15.5175 224.682 15.1614 224.441 14.9212C224.201 14.681 223.862 14.5609 223.423 14.5609H222.416V17.4432H223.423Z" fill="#fff"/>
<path d="M229.688 18.7476C228.909 18.7476 228.292 18.5116 227.837 18.0395C227.39 17.5674 227.166 16.9007 227.166 16.0393V12.4614C227.166 11.5918 227.39 10.9209 227.837 10.4488C228.284 9.97672 228.897 9.74068 229.676 9.74068C230.471 9.74068 231.092 9.97258 231.539 10.4364C231.986 10.8919 232.226 11.5503 232.26 12.4117H231.017C230.984 11.9065 230.856 11.5338 230.632 11.2936C230.408 11.0534 230.085 10.9333 229.663 10.9333C229.282 10.9333 228.984 11.0617 228.769 11.3184C228.553 11.5752 228.446 11.9562 228.446 12.4614V16.0393C228.446 16.5445 228.553 16.9255 228.769 17.1823C228.992 17.4307 229.299 17.555 229.688 17.555C230.11 17.555 230.433 17.4349 230.657 17.1947C230.889 16.9545 231.026 16.5859 231.067 16.089H232.309C232.268 16.9421 232.019 17.6005 231.564 18.0643C231.117 18.5198 230.491 18.7476 229.688 18.7476Z" fill="#fff"/>
<path d="M235.542 14.797L234.97 15.6542V18.5985H233.728V9.90218H234.97V13.6789L235.542 12.6602L237.281 9.90218H238.747L236.262 13.6913L239.107 18.5985H237.666L235.542 14.797Z" fill="#fff"/>
<path d="M240.126 9.90218H241.356V13.7037C241.356 14.0433 241.344 14.4574 241.319 14.9461C241.294 15.4347 241.261 15.8571 241.219 16.2132L241.257 16.2381C241.547 15.4761 241.754 14.9626 241.878 14.6976L243.99 9.90218H245.269V18.5985H244.04V14.8094C244.04 14.4781 244.048 14.0599 244.064 13.5546C244.089 13.0494 244.118 12.6188 244.151 12.2626L244.114 12.2378C243.866 12.9252 243.659 13.4594 243.493 13.8404L241.393 18.5985H240.126V9.90218Z" fill="#fff"/>
<path d="M247.204 9.90218H248.434V13.7037C248.434 14.0433 248.421 14.4574 248.397 14.9461C248.372 15.4347 248.339 15.8571 248.297 16.2132L248.334 16.2381C248.624 15.4761 248.831 14.9626 248.956 14.6976L251.068 9.90218H252.347V18.5985H251.117V14.8094C251.117 14.4781 251.126 14.0599 251.142 13.5546C251.167 13.0494 251.196 12.6188 251.229 12.2626L251.192 12.2378C250.943 12.9252 250.736 13.4594 250.571 13.8404L248.471 18.5985H247.204V9.90218ZM249.813 9.05739C249.374 9.05739 249.018 8.92488 248.744 8.65985C248.471 8.39481 248.326 8.0304 248.31 7.56659H249.167C249.175 7.78193 249.233 7.94757 249.341 8.06352C249.457 8.17119 249.61 8.22503 249.8 8.22503C249.991 8.22503 250.144 8.17119 250.26 8.06352C250.376 7.94757 250.438 7.78193 250.446 7.56659H251.304C251.287 8.03868 251.142 8.40724 250.869 8.67227C250.604 8.92902 250.252 9.05739 249.813 9.05739Z" fill="#fff"/>
<path d="M257.149 9.90218H258.379V13.7037C258.379 14.0433 258.367 14.4574 258.342 14.9461C258.317 15.4347 258.284 15.8571 258.243 16.2132L258.28 16.2381C258.57 15.4761 258.777 14.9626 258.901 14.6976L261.013 9.90218H262.293V18.5985H261.063V14.8094C261.063 14.4781 261.071 14.0599 261.088 13.5546C261.113 13.0494 261.141 12.6188 261.175 12.2626L261.137 12.2378C260.889 12.9252 260.682 13.4594 260.516 13.8404L258.417 18.5985H257.149V9.90218Z" fill="#fff"/>
<path d="M269.197 9.90218V18.5985H267.942V14.7846H265.482V18.5985H264.227V9.90218H265.482V13.6043H267.942V9.90218H269.197Z" fill="#fff"/>
<path d="M273.409 18.7476C272.63 18.7476 272.013 18.5116 271.557 18.0395C271.11 17.5674 270.887 16.9007 270.887 16.0393V12.4614C270.887 11.5918 271.11 10.9209 271.557 10.4488C272.005 9.97672 272.618 9.74068 273.396 9.74068C274.191 9.74068 274.812 9.97258 275.26 10.4364C275.707 10.8919 275.947 11.5503 275.98 12.4117H274.738C274.705 11.9065 274.576 11.5338 274.353 11.2936C274.129 11.0534 273.806 10.9333 273.384 10.9333C273.003 10.9333 272.705 11.0617 272.489 11.3184C272.274 11.5752 272.166 11.9562 272.166 12.4614V16.0393C272.166 16.5445 272.274 16.9255 272.489 17.1823C272.713 17.4307 273.019 17.555 273.409 17.555C273.831 17.555 274.154 17.4349 274.378 17.1947C274.609 16.9545 274.746 16.5859 274.788 16.089H276.03C275.988 16.9421 275.74 17.6005 275.284 18.0643C274.837 18.5198 274.212 18.7476 273.409 18.7476Z" fill="#fff"/>
<path d="M281.673 11.0948H279.859V18.5985H278.579V11.0948H276.778V9.90218H281.673V11.0948Z" fill="#fff"/>
<path d="M282.876 9.90218H284.106V13.7037C284.106 14.0433 284.094 14.4574 284.069 14.9461C284.044 15.4347 284.011 15.8571 283.969 16.2132L284.007 16.2381C284.297 15.4761 284.504 14.9626 284.628 14.6976L286.74 9.90218H288.019V18.5985H286.79V14.8094C286.79 14.4781 286.798 14.0599 286.814 13.5546C286.839 13.0494 286.868 12.6188 286.901 12.2626L286.864 12.2378C286.616 12.9252 286.409 13.4594 286.243 13.8404L284.143 18.5985H282.876V9.90218Z" fill="#fff"/>
<path d="M294.19 11.0948H292.376V18.5985H291.097V11.0948H289.295V9.90218H294.19V11.0948Z" fill="#fff"/>
<path d="M299.964 9.90218L297.852 16.7723C297.629 17.4928 297.339 17.9981 296.983 18.2879C296.635 18.5778 296.134 18.7228 295.479 18.7228H295.169V17.5922H295.517C295.848 17.5922 296.1 17.5011 296.274 17.3189C296.448 17.1367 296.602 16.822 296.734 16.3747L296.833 16.0517L294.647 9.90218H295.976L297.393 14.1385L298.647 9.90218H299.964Z" fill="#fff"/>
<path d="M305.446 11.0948H303.632V18.5985H302.353V11.0948H300.551V9.90218H305.446V11.0948Z" fill="#fff"/>
<path d="M64.0621 34.5985H62.8074V27.0948H60.3475V34.5985H59.0928V25.9022H64.0621V34.5985Z" fill="#fff"/>
<path d="M68.2868 25.9022C69.1399 25.9022 69.7983 26.1506 70.2621 26.6476C70.726 27.1362 70.9579 27.8237 70.9579 28.7099C70.9579 29.6209 70.726 30.3208 70.2621 30.8094C69.7983 31.2981 69.1399 31.5424 68.2868 31.5424H67.2433V34.5985H65.9885V25.9022H68.2868ZM68.2744 30.3497C68.7465 30.3497 69.0985 30.2172 69.3304 29.9522C69.5623 29.6789 69.6782 29.2648 69.6782 28.7099C69.6782 27.6332 69.2103 27.0948 68.2744 27.0948H67.2433V30.3497H68.2744Z" fill="#fff"/>
<path d="M74.8212 34.76C73.993 34.76 73.3428 34.5033 72.8708 33.9898C72.3987 33.468 72.1626 32.7516 72.1626 31.8405V28.6602C72.1626 27.7491 72.3987 27.0368 72.8708 26.5233C73.3428 26.0016 73.993 25.7407 74.8212 25.7407C75.6494 25.7407 76.2996 26.0016 76.7717 26.5233C77.2438 27.0368 77.4798 27.7491 77.4798 28.6602V31.8405C77.4798 32.7516 77.2438 33.468 76.7717 33.9898C76.2996 34.5033 75.6494 34.76 74.8212 34.76ZM74.8212 33.5301C75.2685 33.5301 75.608 33.3852 75.8399 33.0953C76.0718 32.8054 76.1878 32.3872 76.1878 31.8405V28.6602C76.1878 28.1135 76.0718 27.6953 75.8399 27.4054C75.608 27.1155 75.2685 26.9706 74.8212 26.9706C74.374 26.9706 74.0344 27.1155 73.8025 27.4054C73.5706 27.6953 73.4547 28.1135 73.4547 28.6602V31.8405C73.4547 32.3872 73.5706 32.8054 73.8025 33.0953C74.0344 33.3852 74.374 33.5301 74.8212 33.5301Z" fill="#fff"/>
<path d="M81.832 34.3998H81.6332C81.0452 34.3998 80.5275 34.2755 80.0803 34.0271C79.633 33.7786 79.281 33.4142 79.0243 32.9338C78.7758 32.4534 78.6516 31.882 78.6516 31.2194V29.3186C78.6516 28.6477 78.7758 28.0721 79.0243 27.5918C79.281 27.1031 79.633 26.7345 80.0803 26.4861C80.5275 26.2293 81.0452 26.101 81.6332 26.101H81.832V25.1816H83.0743V26.101H83.2731C83.8611 26.101 84.3788 26.2293 84.826 26.4861C85.2732 26.7345 85.6211 27.1031 85.8696 27.5918C86.1263 28.0721 86.2547 28.6477 86.2547 29.3186V31.2194C86.2547 31.882 86.1263 32.4534 85.8696 32.9338C85.6211 33.4142 85.2732 33.7786 84.826 34.0271C84.3788 34.2755 83.8611 34.3998 83.2731 34.3998H83.0743V35.3688H81.832V34.3998ZM81.832 33.1947V27.306H81.5835C81.0534 27.306 80.6393 27.4717 80.3412 27.803C80.0513 28.1342 79.9064 28.6395 79.9064 29.3186V31.2194C79.9064 31.882 80.0513 32.3789 80.3412 32.7102C80.6393 33.0332 81.0534 33.1947 81.5835 33.1947H81.832ZM83.3104 33.1947C83.8487 33.1947 84.2628 33.0332 84.5527 32.7102C84.8508 32.3872 84.9999 31.8902 84.9999 31.2194V29.3186C84.9999 28.6395 84.8508 28.1342 84.5527 27.803C84.2628 27.4717 83.8487 27.306 83.3104 27.306H83.0743V33.1947H83.3104Z" fill="#fff"/>
<path d="M92.056 33.4183V34.5985H87.6706V25.9022H91.9318V27.0824H88.9253V29.6043H91.6957V30.7597H88.9253V33.4183H92.056Z" fill="#fff"/>
<path d="M95.8692 34.7476C95.0907 34.7476 94.4736 34.5116 94.0181 34.0395C93.5709 33.5674 93.3473 32.9007 93.3473 32.0393V28.4614C93.3473 27.5918 93.5709 26.9209 94.0181 26.4488C94.4654 25.9767 95.0782 25.7407 95.8568 25.7407C96.6519 25.7407 97.273 25.9726 97.7203 26.4364C98.1675 26.8919 98.4077 27.5503 98.4408 28.4117H97.1985C97.1654 27.9065 97.037 27.5338 96.8134 27.2936C96.5898 27.0534 96.2667 26.9333 95.8444 26.9333C95.4634 26.9333 95.1652 27.0617 94.9499 27.3184C94.7345 27.5752 94.6269 27.9562 94.6269 28.4614V32.0393C94.6269 32.5445 94.7345 32.9255 94.9499 33.1823C95.1735 33.4307 95.4799 33.555 95.8692 33.555C96.2916 33.555 96.6146 33.4349 96.8382 33.1947C97.0701 32.9545 97.2068 32.5859 97.2482 32.089H98.4905C98.4491 32.9421 98.2006 33.6005 97.7451 34.0643C97.2979 34.5198 96.6726 34.7476 95.8692 34.7476Z" fill="#fff"/>
<path d="M102.183 34.7476C101.404 34.7476 100.787 34.5116 100.332 34.0395C99.8843 33.5674 99.6607 32.9007 99.6607 32.0393V28.4614C99.6607 27.5918 99.8843 26.9209 100.332 26.4488C100.779 25.9767 101.392 25.7407 102.17 25.7407C102.965 25.7407 103.586 25.9726 104.034 26.4364C104.481 26.8919 104.721 27.5503 104.754 28.4117H103.512C103.479 27.9065 103.35 27.5338 103.127 27.2936C102.903 27.0534 102.58 26.9333 102.158 26.9333C101.777 26.9333 101.479 27.0617 101.263 27.3184C101.048 27.5752 100.94 27.9562 100.94 28.4614V32.0393C100.94 32.5445 101.048 32.9255 101.263 33.1823C101.487 33.4307 101.793 33.555 102.183 33.555C102.605 33.555 102.928 33.4349 103.152 33.1947C103.384 32.9545 103.52 32.5859 103.562 32.089H104.804C104.763 32.9421 104.514 33.6005 104.059 34.0643C103.611 34.5198 102.986 34.7476 102.183 34.7476Z" fill="#fff"/>
<path d="M106.223 25.9022H107.452V29.7037C107.452 30.0433 107.44 30.4574 107.415 30.9461C107.39 31.4347 107.357 31.8571 107.316 32.2132L107.353 32.2381C107.643 31.4761 107.85 30.9626 107.974 30.6976L110.086 25.9022H111.366V34.5985H110.136V30.8094C110.136 30.4781 110.144 30.0599 110.161 29.5546C110.186 29.0494 110.215 28.6188 110.248 28.2626L110.21 28.2378C109.962 28.9252 109.755 29.4594 109.589 29.8404L107.49 34.5985H106.223V25.9022Z" fill="#fff"/>
<path d="M115.71 34.76C114.882 34.76 114.232 34.5033 113.76 33.9898C113.288 33.468 113.052 32.7516 113.052 31.8405V28.6602C113.052 27.7491 113.288 27.0368 113.76 26.5233C114.232 26.0016 114.882 25.7407 115.71 25.7407C116.539 25.7407 117.189 26.0016 117.661 26.5233C118.133 27.0368 118.369 27.7491 118.369 28.6602V31.8405C118.369 32.7516 118.133 33.468 117.661 33.9898C117.189 34.5033 116.539 34.76 115.71 34.76ZM115.71 33.5301C116.158 33.5301 116.497 33.3852 116.729 33.0953C116.961 32.8054 117.077 32.3872 117.077 31.8405V28.6602C117.077 28.1135 116.961 27.6953 116.729 27.4054C116.497 27.1155 116.158 26.9706 115.71 26.9706C115.263 26.9706 114.924 27.1155 114.692 27.4054C114.46 27.6953 114.344 28.1135 114.344 28.6602V31.8405C114.344 32.3872 114.46 32.8054 114.692 33.0953C114.924 33.3852 115.263 33.5301 115.71 33.5301Z" fill="#fff"/>
<path d="M125.032 25.9022V34.5985H123.777V30.7846H121.317V34.5985H120.063V25.9022H121.317V29.6043H123.777V25.9022H125.032Z" fill="#fff"/>
<path d="M130.2 32.8468H127.902L127.505 34.5985H126.188L128.374 25.9022H129.728L131.915 34.5985H130.61L130.2 32.8468ZM129.94 31.679L129.393 29.3434C129.269 28.7637 129.161 28.1425 129.07 27.4799H129.033C128.925 28.2668 128.817 28.8879 128.71 29.3434L128.175 31.679H129.94Z" fill="#fff"/>
<path d="M132.329 33.5798C132.603 33.5798 132.814 33.4887 132.963 33.3065C133.112 33.116 133.22 32.7971 133.286 32.3499C133.352 31.9109 133.414 31.1904 133.472 30.1882C133.538 29.1861 133.609 27.7574 133.683 25.9022H137.982V34.5985H136.727V27.0824H134.888C134.814 28.5484 134.748 29.7244 134.69 30.6106C134.632 31.4885 134.565 32.1635 134.491 32.6356C134.383 33.3976 134.151 33.9359 133.795 34.2507C133.447 34.5654 132.959 34.7228 132.329 34.7228V33.5798Z" fill="#fff"/>
<path d="M139.925 25.9022H141.179V29.3683H142.248C143.076 29.3683 143.718 29.6043 144.174 30.0764C144.629 30.5485 144.857 31.1862 144.857 31.9896C144.857 32.8427 144.633 33.4928 144.186 33.9401C143.739 34.379 143.093 34.5985 142.248 34.5985H139.925V25.9022ZM142.186 33.4432C142.625 33.4432 142.964 33.3231 143.204 33.0829C143.445 32.8344 143.565 32.47 143.565 31.9896C143.565 31.5175 143.445 31.1614 143.204 30.9212C142.964 30.681 142.625 30.5609 142.186 30.5609H141.179V33.4432H142.186Z" fill="#fff"/>
<path d="M151.147 25.9022V34.5985H149.892V30.7846H147.432V34.5985H146.177V25.9022H147.432V29.6043H149.892V25.9022H151.147Z" fill="#fff"/>
<path d="M155.495 34.76C154.667 34.76 154.017 34.5033 153.545 33.9898C153.073 33.468 152.837 32.7516 152.837 31.8405V28.6602C152.837 27.7491 153.073 27.0368 153.545 26.5233C154.017 26.0016 154.667 25.7407 155.495 25.7407C156.324 25.7407 156.974 26.0016 157.446 26.5233C157.918 27.0368 158.154 27.7491 158.154 28.6602V31.8405C158.154 32.7516 157.918 33.468 157.446 33.9898C156.974 34.5033 156.324 34.76 155.495 34.76ZM155.495 33.5301C155.943 33.5301 156.282 33.3852 156.514 33.0953C156.746 32.8054 156.862 32.3872 156.862 31.8405V28.6602C156.862 28.1135 156.746 27.6953 156.514 27.4054C156.282 27.1155 155.943 26.9706 155.495 26.9706C155.048 26.9706 154.709 27.1155 154.477 27.4054C154.245 27.6953 154.129 28.1135 154.129 28.6602V31.8405C154.129 32.3872 154.245 32.8054 154.477 33.0953C154.709 33.3852 155.048 33.5301 155.495 33.5301Z" fill="#fff"/>
<path d="M164.009 27.0948H161.102V34.5985H159.848V25.9022H164.009V27.0948Z" fill="#fff"/>
<path d="M167.698 34.76C166.869 34.76 166.219 34.5033 165.747 33.9898C165.275 33.468 165.039 32.7516 165.039 31.8405V28.6602C165.039 27.7491 165.275 27.0368 165.747 26.5233C166.219 26.0016 166.869 25.7407 167.698 25.7407C168.526 25.7407 169.176 26.0016 169.648 26.5233C170.12 27.0368 170.356 27.7491 170.356 28.6602V31.8405C170.356 32.7516 170.12 33.468 169.648 33.9898C169.176 34.5033 168.526 34.76 167.698 34.76ZM167.698 33.5301C168.145 33.5301 168.484 33.3852 168.716 33.0953C168.948 32.8054 169.064 32.3872 169.064 31.8405V28.6602C169.064 28.1135 168.948 27.6953 168.716 27.4054C168.484 27.1155 168.145 26.9706 167.698 26.9706C167.25 26.9706 166.911 27.1155 166.679 27.4054C166.447 27.6953 166.331 28.1135 166.331 28.6602V31.8405C166.331 32.3872 166.447 32.8054 166.679 33.0953C166.911 33.3852 167.25 33.5301 167.698 33.5301Z" fill="#fff"/>
<path d="M177.216 25.9022C178.069 25.9022 178.727 26.1506 179.191 26.6476C179.655 27.1362 179.887 27.8237 179.887 28.7099C179.887 29.6209 179.655 30.3208 179.191 30.8094C178.727 31.2981 178.069 31.5424 177.216 31.5424H176.172V34.5985H174.918V25.9022H177.216ZM177.204 30.3497C177.676 30.3497 178.028 30.2172 178.26 29.9522C178.491 29.6789 178.607 29.2648 178.607 28.7099C178.607 27.6332 178.139 27.0948 177.204 27.0948H176.172V30.3497H177.204Z" fill="#fff"/>
<path d="M184.036 32.8468H181.738L181.341 34.5985H180.024L182.21 25.9022H183.564L185.751 34.5985H184.446L184.036 32.8468ZM183.776 31.679L183.229 29.3434C183.105 28.7637 182.997 28.1425 182.906 27.4799H182.869C182.761 28.2668 182.653 28.8879 182.546 29.3434L182.011 31.679H183.776Z" fill="#fff"/>
<path d="M190.206 30.0889C190.736 30.2379 191.117 30.4905 191.349 30.8467C191.589 31.2028 191.709 31.6501 191.709 32.1884C191.709 32.7102 191.593 33.1657 191.361 33.555C191.129 33.9442 190.81 34.2424 190.405 34.4494C189.999 34.6565 189.539 34.76 189.026 34.76C188.487 34.76 188.015 34.6441 187.609 34.4122C187.212 34.1803 186.901 33.8655 186.678 33.468C186.454 33.0622 186.33 32.6108 186.305 32.1139H187.572C187.597 32.528 187.733 32.8717 187.982 33.145C188.23 33.4183 188.574 33.555 189.013 33.555C189.435 33.555 189.779 33.4307 190.044 33.1823C190.309 32.9255 190.442 32.5735 190.442 32.1263C190.442 31.6625 190.301 31.3063 190.019 31.0579C189.738 30.8094 189.361 30.6852 188.889 30.6852H188.23V29.5671H188.777C189.738 29.5671 190.218 29.1115 190.218 28.2005C190.218 27.803 190.11 27.4924 189.895 27.2687C189.688 27.0451 189.394 26.9333 189.013 26.9333C188.193 26.9333 187.754 27.422 187.696 28.3993H186.454C186.495 27.5793 186.735 26.9292 187.174 26.4488C187.613 25.9684 188.226 25.7283 189.013 25.7283C189.767 25.7283 190.367 25.9519 190.814 26.3991C191.262 26.8381 191.485 27.4427 191.485 28.2129C191.485 28.685 191.386 29.0743 191.187 29.3807C190.988 29.6872 190.661 29.9232 190.206 30.0889Z" fill="#fff"/>
<path d="M196.846 30.1261C197.219 30.2835 197.513 30.5361 197.728 30.8839C197.944 31.2318 198.051 31.6418 198.051 32.1139C198.051 32.8841 197.824 33.4928 197.368 33.9401C196.912 34.379 196.304 34.5985 195.542 34.5985H193.057V25.9022H195.418C196.122 25.9022 196.681 26.1175 197.095 26.5482C197.517 26.9706 197.728 27.5421 197.728 28.2626C197.728 28.6767 197.65 29.0494 197.492 29.3807C197.335 29.7037 197.12 29.9522 196.846 30.1261ZM194.312 27.0824V29.5795H195.306C196.068 29.5795 196.449 29.153 196.449 28.2999C196.449 27.8858 196.353 27.5793 196.163 27.3806C195.972 27.1818 195.674 27.0824 195.268 27.0824H194.312ZM195.38 33.4183C196.308 33.4183 196.772 32.9835 196.772 32.1139C196.772 31.6749 196.643 31.3395 196.387 31.1076C196.13 30.8757 195.778 30.7597 195.331 30.7597H194.312V33.4183H195.38Z" fill="#fff"/>
<path d="M199.431 25.9022H200.661V29.7037C200.661 30.0433 200.649 30.4574 200.624 30.9461C200.599 31.4347 200.566 31.8571 200.524 32.2132L200.562 32.2381C200.852 31.4761 201.059 30.9626 201.183 30.6976L203.295 25.9022H204.574V34.5985H203.345V30.8094C203.345 30.4781 203.353 30.0599 203.369 29.5546C203.394 29.0494 203.423 28.6188 203.456 28.2626L203.419 28.2378C203.171 28.9252 202.964 29.4594 202.798 29.8404L200.698 34.5985H199.431V25.9022Z" fill="#fff"/>
<path d="M210.745 27.0948H208.931V34.5985H207.652V27.0948H205.85V25.9022H210.745V27.0948Z" fill="#fff"/>
<path d="M211.949 25.9022H213.179V29.7037C213.179 30.0433 213.166 30.4574 213.141 30.9461C213.117 31.4347 213.083 31.8571 213.042 32.2132L213.079 32.2381C213.369 31.4761 213.576 30.9626 213.7 30.6976L215.812 25.9022H217.092V34.5985H215.862V30.8094C215.862 30.4781 215.87 30.0599 215.887 29.5546C215.912 29.0494 215.941 28.6188 215.974 28.2626L215.937 28.2378C215.688 28.9252 215.481 29.4594 215.315 29.8404L213.216 34.5985H211.949V25.9022Z" fill="#fff"/>
<path d="M220.244 31.2442C219.747 31.0786 219.362 30.7763 219.089 30.3373C218.824 29.8901 218.691 29.3434 218.691 28.6974C218.691 27.8112 218.919 27.1238 219.374 26.6352C219.83 26.1465 220.468 25.9022 221.288 25.9022H223.524V34.5985H222.269V31.4554H221.499L219.759 34.5985H218.368L220.244 31.2442ZM222.269 30.2752V27.0948H221.3C220.861 27.0948 220.53 27.2273 220.306 27.4924C220.082 27.7574 219.971 28.1508 219.971 28.6726C219.971 29.1861 220.082 29.5836 220.306 29.8652C220.53 30.1385 220.857 30.2752 221.288 30.2752H222.269Z" fill="#fff"/>
<path d="M228.329 25.9022H229.559V29.7037C229.559 30.0433 229.547 30.4574 229.522 30.9461C229.497 31.4347 229.464 31.8571 229.422 32.2132L229.46 32.2381C229.749 31.4761 229.956 30.9626 230.081 30.6976L232.193 25.9022H233.472V34.5985H232.242V30.8094C232.242 30.4781 232.251 30.0599 232.267 29.5546C232.292 29.0494 232.321 28.6188 232.354 28.2626L232.317 28.2378C232.068 28.9252 231.861 29.4594 231.696 29.8404L229.596 34.5985H228.329V25.9022Z" fill="#fff"/>
<path d="M240.685 34.76C239.856 34.76 239.206 34.5033 238.734 33.9898C238.262 33.468 238.026 32.7516 238.026 31.8405V28.6602C238.026 27.7491 238.262 27.0368 238.734 26.5233C239.206 26.0016 239.856 25.7407 240.685 25.7407C241.513 25.7407 242.163 26.0016 242.635 26.5233C243.107 27.0368 243.343 27.7491 243.343 28.6602V31.8405C243.343 32.7516 243.107 33.468 242.635 33.9898C242.163 34.5033 241.513 34.76 240.685 34.76ZM240.685 33.5301C241.132 33.5301 241.472 33.3852 241.703 33.0953C241.935 32.8054 242.051 32.3872 242.051 31.8405V28.6602C242.051 28.1135 241.935 27.6953 241.703 27.4054C241.472 27.1155 241.132 26.9706 240.685 26.9706C240.237 26.9706 239.898 27.1155 239.666 27.4054C239.434 27.6953 239.318 28.1135 239.318 28.6602V31.8405C239.318 32.3872 239.434 32.8054 239.666 33.0953C239.898 33.3852 240.237 33.5301 240.685 33.5301Z" fill="#fff"/>
<path d="M245.037 25.9022H249.559V27.0824H246.292V29.331H247.422C248.242 29.331 248.88 29.5671 249.335 30.0392C249.799 30.5112 250.031 31.149 250.031 31.9524C250.031 32.8137 249.803 33.4721 249.348 33.9277C248.901 34.3749 248.259 34.5985 247.422 34.5985H245.037V25.9022ZM247.348 33.4059C247.787 33.4059 248.13 33.2858 248.379 33.0456C248.627 32.7971 248.751 32.4327 248.751 31.9524C248.751 31.4803 248.623 31.12 248.366 30.8715C248.118 30.6231 247.778 30.4988 247.348 30.4988H246.292V33.4059H247.348Z" fill="#fff"/>
<path d="M255.86 25.9022L253.748 32.7723C253.524 33.4928 253.234 33.9981 252.878 34.2879C252.531 34.5778 252.029 34.7228 251.375 34.7228H251.065V33.5922H251.412C251.744 33.5922 251.996 33.5011 252.17 33.3189C252.344 33.1367 252.497 32.822 252.63 32.3747L252.729 32.0517L250.543 25.9022H251.872L253.288 30.1385L254.543 25.9022H255.86Z" fill="#fff"/>
<path d="M261.544 25.9022V34.6234H260.289V31.4057C259.925 31.5382 259.532 31.6045 259.109 31.6045C258.314 31.6045 257.689 31.3643 257.233 30.8839C256.778 30.3953 256.55 29.712 256.55 28.8341V25.9022H257.805V28.8714C257.805 29.3931 257.929 29.7824 258.177 30.0392C258.426 30.2959 258.782 30.4243 259.246 30.4243C259.627 30.4243 259.975 30.3622 260.289 30.2379V25.9022H261.544Z" fill="#fff"/>
<path d="M267.865 33.4183V34.5985H263.48V25.9022H267.741V27.0824H264.734V29.6043H267.505V30.7597H264.734V33.4183H267.865Z" fill="#fff"/>
<path d="M274.374 25.9022V34.5985H273.119V30.7846H270.66V34.5985H269.405V25.9022H270.66V29.6043H273.119V25.9022H274.374Z" fill="#fff"/>
<path d="M276.313 25.9022H277.543V29.7037C277.543 30.0433 277.53 30.4574 277.505 30.9461C277.48 31.4347 277.447 31.8571 277.406 32.2132L277.443 32.2381C277.733 31.4761 277.94 30.9626 278.064 30.6976L280.176 25.9022H281.456V34.5985H280.226V30.8094C280.226 30.4781 280.234 30.0599 280.251 29.5546C280.276 29.0494 280.305 28.6188 280.338 28.2626L280.301 28.2378C280.052 28.9252 279.845 29.4594 279.679 29.8404L277.58 34.5985H276.313V25.9022Z" fill="#fff"/>
<path d="M284.608 31.2442C284.111 31.0786 283.726 30.7763 283.453 30.3373C283.187 29.8901 283.055 29.3434 283.055 28.6974C283.055 27.8112 283.283 27.1238 283.738 26.6352C284.194 26.1465 284.832 25.9022 285.651 25.9022H287.888V34.5985H286.633V31.4554H285.863L284.123 34.5985H282.732L284.608 31.2442ZM286.633 30.2752V27.0948H285.664C285.225 27.0948 284.894 27.2273 284.67 27.4924C284.446 27.7574 284.335 28.1508 284.335 28.6726C284.335 29.1861 284.446 29.5836 284.67 29.8652C284.894 30.1385 285.221 30.2752 285.651 30.2752H286.633Z" fill="#fff"/>
<path d="M64.0621 50.5985H62.8074V43.0948H60.3475V50.5985H59.0928V41.9022H64.0621V50.5985Z" fill="#fff"/>
<path d="M70.374 49.4183V50.5985H65.9885V41.9022H70.2497V43.0824H67.2433V45.6043H70.0137V46.7597H67.2433V49.4183H70.374Z" fill="#fff"/>
<path d="M77.7154 49.4183V52.0521H76.4855V50.5985H72.3485V52.0521H71.1186V49.4183H71.6279C71.9261 49.1119 72.158 48.6646 72.3236 48.0766C72.4893 47.4885 72.5845 46.8301 72.6094 46.1013L72.7585 41.9022H76.9451V49.4183H77.7154ZM75.7028 43.0824H73.9387L73.8144 46.4491C73.7648 47.708 73.537 48.6978 73.1312 49.4183H75.7028V43.0824Z" fill="#fff"/>
<path d="M82.2457 48.8468H79.9474L79.5499 50.5985H78.233L80.4195 41.9022H81.7736L83.9602 50.5985H82.6557L82.2457 48.8468ZM81.9848 47.679L81.4382 45.3434C81.314 44.7637 81.2063 44.1425 81.1152 43.4799H81.0779C80.9703 44.2668 80.8626 44.8879 80.7549 45.3434L80.2207 47.679H81.9848Z" fill="#fff"/>
<path d="M89.2846 43.0948H86.3776V50.5985H85.1228V41.9022H89.2846V43.0948Z" fill="#fff"/>
<path d="M92.9728 50.76C92.1446 50.76 91.4944 50.5033 91.0223 49.9898C90.5503 49.468 90.3142 48.7516 90.3142 47.8405V44.6602C90.3142 43.7491 90.5503 43.0368 91.0223 42.5233C91.4944 42.0016 92.1446 41.7407 92.9728 41.7407C93.801 41.7407 94.4512 42.0016 94.9233 42.5233C95.3954 43.0368 95.6314 43.7491 95.6314 44.6602V47.8405C95.6314 48.7516 95.3954 49.468 94.9233 49.9898C94.4512 50.5033 93.801 50.76 92.9728 50.76ZM92.9728 49.5301C93.42 49.5301 93.7596 49.3852 93.9915 49.0953C94.2234 48.8054 94.3394 48.3872 94.3394 47.8405V44.6602C94.3394 44.1135 94.2234 43.6953 93.9915 43.4054C93.7596 43.1155 93.42 42.9706 92.9728 42.9706C92.5256 42.9706 92.186 43.1155 91.9541 43.4054C91.7222 43.6953 91.6062 44.1135 91.6062 44.6602V47.8405C91.6062 48.3872 91.7222 48.8054 91.9541 49.0953C92.186 49.3852 92.5256 49.5301 92.9728 49.5301Z" fill="#fff"/>
<path d="M101.487 43.0948H98.5797V50.5985H97.325V41.9022H101.487V43.0948Z" fill="#fff"/>
<path d="M105.175 50.76C104.347 50.76 103.697 50.5033 103.225 49.9898C102.752 49.468 102.516 48.7516 102.516 47.8405V44.6602C102.516 43.7491 102.752 43.0368 103.225 42.5233C103.697 42.0016 104.347 41.7407 105.175 41.7407C106.003 41.7407 106.653 42.0016 107.125 42.5233C107.598 43.0368 107.834 43.7491 107.834 44.6602V47.8405C107.834 48.7516 107.598 49.468 107.125 49.9898C106.653 50.5033 106.003 50.76 105.175 50.76ZM105.175 49.5301C105.622 49.5301 105.962 49.3852 106.194 49.0953C106.426 48.8054 106.542 48.3872 106.542 47.8405V44.6602C106.542 44.1135 106.426 43.6953 106.194 43.4054C105.962 43.1155 105.622 42.9706 105.175 42.9706C104.728 42.9706 104.388 43.1155 104.156 43.4054C103.924 43.6953 103.808 44.1135 103.808 44.6602V47.8405C103.808 48.3872 103.924 48.8054 104.156 49.0953C104.388 49.3852 104.728 49.5301 105.175 49.5301Z" fill="#fff"/>
<path d="M113.316 46.1261C113.689 46.2835 113.983 46.5361 114.198 46.8839C114.414 47.2318 114.521 47.6418 114.521 48.1139C114.521 48.8841 114.294 49.4928 113.838 49.9401C113.383 50.379 112.774 50.5985 112.012 50.5985H109.527V41.9022H111.888C112.592 41.9022 113.151 42.1175 113.565 42.5482C113.987 42.9706 114.198 43.5421 114.198 44.2626C114.198 44.6767 114.12 45.0494 113.962 45.3807C113.805 45.7037 113.59 45.9522 113.316 46.1261ZM110.782 43.0824V45.5795H111.776C112.538 45.5795 112.919 45.153 112.919 44.2999C112.919 43.8858 112.823 43.5793 112.633 43.3806C112.442 43.1818 112.144 43.0824 111.738 43.0824H110.782ZM111.85 49.4183C112.778 49.4183 113.242 48.9835 113.242 48.1139C113.242 47.6749 113.113 47.3395 112.857 47.1076C112.6 46.8757 112.248 46.7597 111.801 46.7597H110.782V49.4183H111.85Z" fill="#fff"/>
<path d="M123.848 41.9022V50.5985H122.593V46.7846H120.133V50.5985H118.878V41.9022H120.133V45.6043H122.593V41.9022H123.848Z" fill="#fff"/>
<path d="M128.196 50.76C127.368 50.76 126.718 50.5033 126.246 49.9898C125.774 49.468 125.538 48.7516 125.538 47.8405V44.6602C125.538 43.7491 125.774 43.0368 126.246 42.5233C126.718 42.0016 127.368 41.7407 128.196 41.7407C129.024 41.7407 129.675 42.0016 130.147 42.5233C130.619 43.0368 130.855 43.7491 130.855 44.6602V47.8405C130.855 48.7516 130.619 49.468 130.147 49.9898C129.675 50.5033 129.024 50.76 128.196 50.76ZM128.196 49.5301C128.643 49.5301 128.983 49.3852 129.215 49.0953C129.447 48.8054 129.563 48.3872 129.563 47.8405V44.6602C129.563 44.1135 129.447 43.6953 129.215 43.4054C128.983 43.1155 128.643 42.9706 128.196 42.9706C127.749 42.9706 127.409 43.1155 127.178 43.4054C126.946 43.6953 126.83 44.1135 126.83 44.6602V47.8405C126.83 48.3872 126.946 48.8054 127.178 49.0953C127.409 49.3852 127.749 49.5301 128.196 49.5301Z" fill="#fff"/>
<path d="M136.337 46.1261C136.71 46.2835 137.004 46.5361 137.22 46.8839C137.435 47.2318 137.543 47.6418 137.543 48.1139C137.543 48.8841 137.315 49.4928 136.859 49.9401C136.404 50.379 135.795 50.5985 135.033 50.5985H132.548V41.9022H134.909C135.613 41.9022 136.172 42.1175 136.586 42.5482C137.008 42.9706 137.22 43.5421 137.22 44.2626C137.22 44.6767 137.141 45.0494 136.984 45.3807C136.826 45.7037 136.611 45.9522 136.337 46.1261ZM133.803 43.0824V45.5795H134.797C135.559 45.5795 135.94 45.153 135.94 44.2999C135.94 43.8858 135.845 43.5793 135.654 43.3806C135.464 43.1818 135.166 43.0824 134.76 43.0824H133.803ZM134.872 49.4183C135.799 49.4183 136.263 48.9835 136.263 48.1139C136.263 47.6749 136.135 47.3395 135.878 47.1076C135.621 46.8757 135.269 46.7597 134.822 46.7597H133.803V49.4183H134.872Z" fill="#fff"/>
<path d="M138.922 41.9022H140.202V45.3807H141.084C141.929 45.3807 142.579 45.6168 143.035 46.0889C143.49 46.5527 143.718 47.1862 143.718 47.9896C143.718 48.8427 143.494 49.4928 143.047 49.9401C142.6 50.379 141.945 50.5985 141.084 50.5985H138.922V41.9022ZM144.749 41.9022H146.004V50.5985H144.749V41.9022ZM141.022 49.4307C141.469 49.4307 141.813 49.3106 142.053 49.0705C142.293 48.8303 142.413 48.47 142.413 47.9896C142.413 47.5258 142.293 47.1738 142.053 46.9336C141.813 46.6935 141.469 46.5734 141.022 46.5734H140.202V49.4307H141.022Z" fill="#fff"/>
<path d="M154.737 41.9022V50.5985H153.507V47.207C153.54 45.9895 153.574 45.0536 153.607 44.3993L153.557 44.3744C153.391 44.8382 153.11 45.6002 152.712 46.6603L151.954 48.6356H150.712L149.954 46.6603C149.557 45.6002 149.275 44.8382 149.109 44.3744L149.06 44.3993C149.109 45.6085 149.143 46.5444 149.159 47.207V50.5985H147.929V41.9022H149.209L150.675 45.4304C150.865 45.9025 151.076 46.4781 151.308 47.1573H151.358C151.59 46.4781 151.801 45.9025 151.992 45.4304L153.458 41.9022H154.737Z" fill="#fff"/>
<path d="M166.357 41.9022V50.5985H165.127V47.207C165.16 45.9895 165.193 45.0536 165.226 44.3993L165.177 44.3744C165.011 44.8382 164.73 45.6002 164.332 46.6603L163.574 48.6356H162.332L161.574 46.6603C161.176 45.6002 160.895 44.8382 160.729 44.3744L160.68 44.3993C160.729 45.6085 160.762 46.5444 160.779 47.207V50.5985H159.549V41.9022H160.829L162.295 45.4304C162.485 45.9025 162.696 46.4781 162.928 47.1573H162.978C163.21 46.4781 163.421 45.9025 163.611 45.4304L165.077 41.9022H166.357Z" fill="#fff"/>
<path d="M172.686 49.4183V50.5985H168.301V41.9022H172.562V43.0824H169.556V45.6043H172.326V46.7597H169.556V49.4183H172.686Z" fill="#fff"/>
<path d="M178.462 43.0948H176.649V50.5985H175.369V43.0948H173.568V41.9022H178.462V43.0948Z" fill="#fff"/>
<path d="M182.137 50.76C181.309 50.76 180.658 50.5033 180.186 49.9898C179.714 49.468 179.478 48.7516 179.478 47.8405V44.6602C179.478 43.7491 179.714 43.0368 180.186 42.5233C180.658 42.0016 181.309 41.7407 182.137 41.7407C182.965 41.7407 183.615 42.0016 184.087 42.5233C184.559 43.0368 184.795 43.7491 184.795 44.6602V47.8405C184.795 48.7516 184.559 49.468 184.087 49.9898C183.615 50.5033 182.965 50.76 182.137 50.76ZM182.137 49.5301C182.584 49.5301 182.924 49.3852 183.155 49.0953C183.387 48.8054 183.503 48.3872 183.503 47.8405V44.6602C183.503 44.1135 183.387 43.6953 183.155 43.4054C182.924 43.1155 182.584 42.9706 182.137 42.9706C181.69 42.9706 181.35 43.1155 181.118 43.4054C180.886 43.6953 180.77 44.1135 180.77 44.6602V47.8405C180.77 48.3872 180.886 48.8054 181.118 49.0953C181.35 49.3852 181.69 49.5301 182.137 49.5301Z" fill="#fff"/>
<path d="M192.291 49.4183V52.0521H191.061V50.5985H186.924V52.0521H185.694V49.4183H186.203C186.501 49.1119 186.733 48.6646 186.899 48.0766C187.065 47.4885 187.16 46.8301 187.185 46.1013L187.334 41.9022H191.52V49.4183H192.291ZM190.278 43.0824H188.514L188.39 46.4491C188.34 47.708 188.112 48.6978 187.706 49.4183H190.278V43.0824Z" fill="#fff"/>
<path d="M193.591 41.9022H194.821V45.7037C194.821 46.0433 194.808 46.4574 194.784 46.9461C194.759 47.4347 194.726 47.8571 194.684 48.2132L194.721 48.2381C195.011 47.4761 195.218 46.9626 195.343 46.6976L197.455 41.9022H198.734V50.5985H197.504V46.8094C197.504 46.4781 197.513 46.0599 197.529 45.5546C197.554 45.0494 197.583 44.6188 197.616 44.2626L197.579 44.2378C197.33 44.9252 197.123 45.4594 196.958 45.8404L194.858 50.5985H193.591V41.9022Z" fill="#fff"/>
<path d="M202.482 46.797L201.911 47.6542V50.5985H200.669V41.9022H201.911V45.6789L202.482 44.6602L204.222 41.9022H205.688L203.203 45.6913L206.048 50.5985H204.607L202.482 46.797Z" fill="#fff"/>
<path d="M210.346 48.8468H208.047L207.65 50.5985H206.333L208.519 41.9022H209.873L212.06 50.5985H210.756L210.346 48.8468ZM210.085 47.679L209.538 45.3434C209.414 44.7637 209.306 44.1425 209.215 43.4799H209.178C209.07 44.2668 208.962 44.8879 208.855 45.3434L208.321 47.679H210.085Z" fill="#fff"/>
<path d="M220.031 41.9022V50.5985H218.801V47.207C218.834 45.9895 218.867 45.0536 218.9 44.3993L218.85 44.3744C218.685 44.8382 218.403 45.6002 218.006 46.6603L217.248 48.6356H216.005L215.248 46.6603C214.85 45.6002 214.568 44.8382 214.403 44.3744L214.353 44.3993C214.403 45.6085 214.436 46.5444 214.453 47.207V50.5985H213.223V41.9022H214.502L215.968 45.4304C216.159 45.9025 216.37 46.4781 216.602 47.1573H216.651C216.883 46.4781 217.095 45.9025 217.285 45.4304L218.751 41.9022H220.031Z" fill="#fff"/>
<path d="M224.842 41.9022H226.072V45.7037C226.072 46.0433 226.06 46.4574 226.035 46.9461C226.01 47.4347 225.977 47.8571 225.936 48.2132L225.973 48.2381C226.263 47.4761 226.47 46.9626 226.594 46.6976L228.706 41.9022H229.986V50.5985H228.756V46.8094C228.756 46.4781 228.764 46.0599 228.781 45.5546C228.805 45.0494 228.834 44.6188 228.868 44.2626L228.83 44.2378C228.582 44.9252 228.375 45.4594 228.209 45.8404L226.11 50.5985H224.842V41.9022Z" fill="#fff"/>
<path d="M238.728 41.9022V50.5985H237.498V47.207C237.531 45.9895 237.564 45.0536 237.598 44.3993L237.548 44.3744C237.382 44.8382 237.101 45.6002 236.703 46.6603L235.945 48.6356H234.703L233.945 46.6603C233.548 45.6002 233.266 44.8382 233.1 44.3744L233.051 44.3993C233.1 45.6085 233.134 46.5444 233.15 47.207V50.5985H231.92V41.9022H233.2L234.666 45.4304C234.856 45.9025 235.067 46.4781 235.299 47.1573H235.349C235.581 46.4781 235.792 45.9025 235.983 45.4304L237.449 41.9022H238.728Z" fill="#fff"/>
<path d="M245.058 49.4183V50.5985H240.672V41.9022H244.933V43.0824H241.927V45.6043H244.697V46.7597H241.927V49.4183H245.058Z" fill="#fff"/>
<path d="M251.567 41.9022V50.5985H250.312V46.7846H247.852V50.5985H246.597V41.9022H247.852V45.6043H250.312V41.9022H251.567Z" fill="#fff"/>
<path d="M253.505 41.9022H254.735V45.7037C254.735 46.0433 254.723 46.4574 254.698 46.9461C254.673 47.4347 254.64 47.8571 254.598 48.2132L254.636 48.2381C254.926 47.4761 255.133 46.9626 255.257 46.6976L257.369 41.9022H258.648V50.5985H257.419V46.8094C257.419 46.4781 257.427 46.0599 257.443 45.5546C257.468 45.0494 257.497 44.6188 257.53 44.2626L257.493 44.2378C257.245 44.9252 257.038 45.4594 256.872 45.8404L254.772 50.5985H253.505V41.9022Z" fill="#fff"/>
<path d="M266.681 48.8468H264.382L263.985 50.5985H262.668L264.855 41.9022H266.209L268.395 50.5985H267.091L266.681 48.8468ZM266.42 47.679L265.873 45.3434C265.749 44.7637 265.641 44.1425 265.55 43.4799H265.513C265.405 44.2668 265.298 44.8879 265.19 45.3434L264.656 47.679H266.42Z" fill="#fff"/>
<path d="M269.893 50.7352C269.67 50.7352 269.487 50.6689 269.347 50.5364C269.206 50.3956 269.135 50.2093 269.135 49.9774C269.135 49.7537 269.206 49.5757 269.347 49.4432C269.487 49.3024 269.67 49.232 269.893 49.232C270.117 49.232 270.299 49.3024 270.44 49.4432C270.581 49.5757 270.651 49.7537 270.651 49.9774C270.651 50.2093 270.581 50.3956 270.44 50.5364C270.299 50.6689 270.117 50.7352 269.893 50.7352Z" fill="#fff"/>
<path d="M278.269 48.8468H275.971L275.573 50.5985H274.256L276.443 41.9022H277.797L279.983 50.5985H278.679L278.269 48.8468ZM278.008 47.679L277.461 45.3434C277.337 44.7637 277.229 44.1425 277.138 43.4799H277.101C276.993 44.2668 276.886 44.8879 276.778 45.3434L276.244 47.679H278.008Z" fill="#fff"/>
<path d="M284.935 46.1261C285.308 46.2835 285.602 46.5361 285.817 46.8839C286.032 47.2318 286.14 47.6418 286.14 48.1139C286.14 48.8841 285.912 49.4928 285.457 49.9401C285.001 50.379 284.393 50.5985 283.631 50.5985H281.146V41.9022H283.506C284.21 41.9022 284.769 42.1175 285.184 42.5482C285.606 42.9706 285.817 43.5421 285.817 44.2626C285.817 44.6767 285.738 45.0494 285.581 45.3807C285.424 45.7037 285.208 45.9522 284.935 46.1261ZM282.401 43.0824V45.5795H283.395C284.157 45.5795 284.538 45.153 284.538 44.2999C284.538 43.8858 284.442 43.5793 284.252 43.3806C284.061 43.1818 283.763 43.0824 283.357 43.0824H282.401ZM283.469 49.4183C284.397 49.4183 284.861 48.9835 284.861 48.1139C284.861 47.6749 284.732 47.3395 284.475 47.1076C284.219 46.8757 283.867 46.7597 283.419 46.7597H282.401V49.4183H283.469Z" fill="#fff"/>
<path d="M286.735 49.5798C287.009 49.5798 287.22 49.4887 287.369 49.3065C287.518 49.116 287.626 48.7971 287.692 48.3499C287.758 47.9109 287.82 47.1904 287.878 46.1882C287.944 45.1861 288.015 43.7574 288.089 41.9022H292.388V50.5985H291.133V43.0824H289.294C289.22 44.5484 289.154 45.7244 289.096 46.6106C289.038 47.4885 288.971 48.1636 288.897 48.6356C288.789 49.3976 288.557 49.936 288.201 50.2507C287.853 50.5654 287.365 50.7228 286.735 50.7228V49.5798Z" fill="#fff"/>
<path d="M296.741 50.76C295.913 50.76 295.263 50.5033 294.79 49.9898C294.318 49.468 294.082 48.7516 294.082 47.8405V44.6602C294.082 43.7491 294.318 43.0368 294.79 42.5233C295.263 42.0016 295.913 41.7407 296.741 41.7407C297.569 41.7407 298.219 42.0016 298.691 42.5233C299.163 43.0368 299.4 43.7491 299.4 44.6602V47.8405C299.4 48.7516 299.163 49.468 298.691 49.9898C298.219 50.5033 297.569 50.76 296.741 50.76ZM296.741 49.5301C297.188 49.5301 297.528 49.3852 297.76 49.0953C297.992 48.8054 298.108 48.3872 298.108 47.8405V44.6602C298.108 44.1135 297.992 43.6953 297.76 43.4054C297.528 43.1155 297.188 42.9706 296.741 42.9706C296.294 42.9706 295.954 43.1155 295.722 43.4054C295.49 43.6953 295.374 44.1135 295.374 44.6602V47.8405C295.374 48.3872 295.49 48.8054 295.722 49.0953C295.954 49.3852 296.294 49.5301 296.741 49.5301Z" fill="#fff"/>
<path d="M306.062 41.9022V50.5985H304.808V46.7846H302.348V50.5985H301.093V41.9022H302.348V45.6043H304.808V41.9022H306.062Z" fill="#fff"/>
<path d="M308.001 41.9022H309.231V45.7037C309.231 46.0433 309.218 46.4574 309.194 46.9461C309.169 47.4347 309.136 47.8571 309.094 48.2132L309.131 48.2381C309.421 47.4761 309.628 46.9626 309.753 46.6976L311.865 41.9022H313.144V50.5985H311.914V46.8094C311.914 46.4781 311.923 46.0599 311.939 45.5546C311.964 45.0494 311.993 44.6188 312.026 44.2626L311.989 44.2378C311.74 44.9252 311.533 45.4594 311.368 45.8404L309.268 50.5985H308.001V41.9022Z" fill="#fff"/>
</g>
<defs>
<clipPath id="clip0_1501_13791">
<rect width="315.924" height="62.0036" fill="white" transform="translate(0.0634766)"/>
</clipPath>
</defs>
</svg>
